<?xml version="1.0" encoding="UTF-8" standalone="no"?>
<!-- Created with Inkscape (http://www.inkscape.org/) -->

<svg
   version="1.1"
   id="svg25"
   xml:space="preserve"
   width="460.51733"
   height="158.3"
   viewBox="0 0 460.51733 158.3"
   sodipodi:docname="chinski-szpon.svg"
   inkscape:version="1.1 (c4e8f9ed74, 2021-05-24)"
   xmlns:inkscape="http://www.inkscape.org/namespaces/inkscape"
   xmlns:sodipodi="http://sodipodi.sourceforge.net/DTD/sodipodi-0.dtd"
   xmlns="http://www.w3.org/2000/svg"
   xmlns:svg="http://www.w3.org/2000/svg"><defs
     id="defs29"><clipPath
       clipPathUnits="userSpaceOnUse"
       id="clipPath159"><path
         d="M 0,0 H 595.276 V 841.89 H 0 Z"
         id="path157" /></clipPath><clipPath
       clipPathUnits="userSpaceOnUse"
       id="clipPath171"><path
         d="m 142.788,133.248 h 310.454 v 82.52 H 142.788 Z"
         id="path169" /></clipPath></defs><sodipodi:namedview
     id="namedview27"
     pagecolor="#505050"
     bordercolor="#eeeeee"
     borderopacity="1"
     inkscape:pageshadow="0"
     inkscape:pageopacity="0"
     inkscape:pagecheckerboard="0"
     showgrid="false"
     fit-margin-top="0"
     fit-margin-left="0"
     fit-margin-right="0"
     fit-margin-bottom="0"
     inkscape:zoom="2.0056907"
     inkscape:cx="344.27043"
     inkscape:cy="61.325507"
     inkscape:window-width="1920"
     inkscape:window-height="1011"
     inkscape:window-x="0"
     inkscape:window-y="32"
     inkscape:window-maximized="1"
     inkscape:current-layer="g31" /><g
     id="g31"
     inkscape:groupmode="layer"
     inkscape:label="Riichi-rules-2016-EN"
     transform="matrix(1.3333333,0,0,-1.3333333,-167.09426,312.56719)"><g
       id="g1873"><g
         id="g153"><g
           id="g155"
           clip-path="url(#clipPath159)"><g
             id="g161"
             transform="translate(137.3207,234.4254)"><g
               id="g1543"><path
                 d="m 0,0 c 0,0 -12,0 -12,-12 v -94.725 c 0,0 0,-12 12,-12 h 321.388 c 0,0 12,0 12,12 V -12 c 0,0 0,12 -12,12 z"
                 style="fill:#75a12d;fill-opacity:1;fill-rule:nonzero;stroke:none"
                 id="path163" /></g></g></g></g><g
         id="g167"
         clip-path="url(#clipPath171)"><g
           id="g173"
           transform="translate(178.2874,158.8806)"><path
             d="m 0,0 c 0.117,0.002 0.233,0.01 0.348,0.018 0.033,0.003 0.065,0.007 0.097,0.011 0.042,0.005 0.082,0.009 0.123,0.015 0.045,0.004 0.092,0.008 0.137,0.013 0.13,0.021 0.257,0.041 0.381,0.069 0.01,0.001 0.021,0.006 0.031,0.008 0.057,0.011 0.111,0.027 0.167,0.04 0.083,0.02 0.169,0.039 0.25,0.062 0.032,0.01 0.056,0.024 0.087,0.035 0.212,0.068 0.408,0.144 0.586,0.234 0.023,0.011 0.048,0.019 0.069,0.028 0.194,0.103 0.36,0.218 0.506,0.341 0.042,0.035 0.074,0.072 0.11,0.107 0.099,0.096 0.18,0.198 0.247,0.304 0.025,0.041 0.053,0.081 0.073,0.125 0.07,0.145 0.117,0.295 0.117,0.451 v -25.629 c 0,-0.156 -0.048,-0.305 -0.117,-0.45 -0.02,-0.043 -0.047,-0.084 -0.072,-0.125 -0.066,-0.107 -0.149,-0.208 -0.249,-0.306 -0.035,-0.036 -0.067,-0.07 -0.108,-0.105 -0.146,-0.124 -0.313,-0.239 -0.507,-0.341 -0.021,-0.008 -0.045,-0.016 -0.066,-0.027 -0.179,-0.089 -0.38,-0.166 -0.592,-0.235 -0.124,-0.041 -0.249,-0.079 -0.381,-0.109 -0.03,-0.007 -0.06,-0.017 -0.092,-0.024 -0.193,-0.042 -0.396,-0.076 -0.606,-0.099 -0.022,-0.004 -0.044,-0.005 -0.067,-0.008 -0.22,-0.022 -0.446,-0.036 -0.678,-0.036 v 25.628 c 0.07,0 0.138,0.002 0.206,0.005"
             style="fill:#e0dfde;fill-opacity:1;fill-rule:nonzero;stroke:none"
             id="path175" /></g><g
           id="g177"
           transform="translate(180.8445,159.5869)"><path
             d="M 0,0 C 0.081,0.053 0.155,0.111 0.225,0.168 0.267,0.203 0.299,0.239 0.335,0.275 0.434,0.371 0.515,0.472 0.582,0.579 0.607,0.619 0.635,0.66 0.655,0.703 0.725,0.849 0.772,1 0.772,1.156 v -25.63 c 0,-0.157 -0.048,-0.305 -0.117,-0.451 -0.02,-0.042 -0.047,-0.083 -0.072,-0.124 -0.066,-0.107 -0.149,-0.208 -0.249,-0.306 -0.035,-0.035 -0.067,-0.07 -0.108,-0.105 -0.071,-0.059 -0.146,-0.116 -0.228,-0.172 z"
             style="fill:#adacab;fill-opacity:1;fill-rule:nonzero;stroke:none"
             id="path179" /></g><g
           id="g181"
           transform="translate(146.1451,158.8806)"><path
             d="m 0,0 c -0.117,0.002 -0.233,0.01 -0.348,0.018 -0.033,0.003 -0.064,0.007 -0.098,0.011 -0.04,0.005 -0.08,0.009 -0.121,0.015 -0.045,0.004 -0.092,0.008 -0.136,0.013 -0.131,0.021 -0.259,0.041 -0.383,0.069 -0.01,0.001 -0.02,0.006 -0.031,0.008 -0.057,0.011 -0.11,0.027 -0.165,0.04 -0.085,0.02 -0.171,0.039 -0.252,0.062 -0.031,0.01 -0.055,0.024 -0.087,0.035 -0.211,0.068 -0.407,0.144 -0.586,0.234 -0.022,0.011 -0.047,0.019 -0.068,0.028 -0.195,0.103 -0.361,0.218 -0.507,0.341 -0.041,0.035 -0.073,0.072 -0.11,0.107 -0.099,0.096 -0.181,0.198 -0.247,0.304 -0.025,0.041 -0.053,0.081 -0.073,0.125 -0.069,0.145 -0.117,0.295 -0.117,0.451 v -25.629 c 0,-0.156 0.049,-0.305 0.118,-0.45 0.019,-0.043 0.047,-0.084 0.072,-0.125 0.066,-0.107 0.148,-0.208 0.249,-0.306 0.035,-0.036 0.067,-0.07 0.107,-0.105 0.146,-0.124 0.313,-0.239 0.508,-0.341 0.02,-0.008 0.045,-0.016 0.065,-0.027 0.18,-0.089 0.38,-0.166 0.592,-0.235 0.124,-0.041 0.25,-0.079 0.381,-0.109 0.031,-0.007 0.061,-0.017 0.092,-0.024 0.193,-0.042 0.396,-0.076 0.606,-0.099 0.022,-0.004 0.044,-0.005 0.067,-0.008 0.22,-0.022 0.446,-0.036 0.679,-0.036 V -0.005 C 0.137,-0.005 0.068,-0.003 0,0"
             style="fill:#e0dfde;fill-opacity:1;fill-rule:nonzero;stroke:none"
             id="path183" /></g><g
           id="g185"
           transform="translate(178.0902,187.9248)"><path
             d="m 0,0 c 1.958,0 3.543,-0.837 3.543,-1.867 v -25.316 c 0,-1.03 -1.585,-1.866 -3.543,-1.866 h -31.738 c -1.952,0 -3.536,0.836 -3.536,1.866 v 25.316 c 0,1.03 1.584,1.867 3.536,1.867 z"
             style="fill:#4f4c4d;fill-opacity:1;fill-rule:nonzero;stroke:none"
             id="path187" /></g><path
           d="m 178.09,133.248 h -31.738 v 25.628 h 31.738 z"
           style="fill:#eae9e9;fill-opacity:1;fill-rule:nonzero;stroke:none"
           id="path189" /><g
           id="g191"
           transform="translate(181.6333,161.1272)"><path
             d="m 0,0 v -4.304 c 0,-1.031 -1.585,-1.868 -3.543,-1.868 h -31.738 c -1.952,0 -3.536,0.837 -3.536,1.868 v 4.349 z"
             style="fill:#444141;fill-opacity:1;fill-rule:nonzero;stroke:none"
             id="path193" /></g><g
           id="g195"
           transform="translate(178.0459,161.1323)"><path
             d="M 0,0 3.587,-0.005 V -4.31 c 0,-1.03 -1.585,-1.867 -3.543,-1.867 z"
             style="fill:#403c3d;fill-opacity:1;fill-rule:nonzero;stroke:none"
             id="path197" /></g><g
           id="g199"
           transform="translate(178.0902,187.9248)"><path
             d="m 0,0 c 1.958,0 3.543,-0.837 3.543,-1.867 v -25.316 c 0,-1.03 -1.585,-1.866 -3.543,-1.866 z"
             style="fill:#484546;fill-opacity:1;fill-rule:nonzero;stroke:none"
             id="path201" /></g><g
           id="g203"
           transform="translate(146.3524,187.9248)"><path
             d="m 0,0 c -1.958,0 -3.542,-0.837 -3.542,-1.867 v -25.316 c 0,-1.03 1.584,-1.866 3.542,-1.866 z"
             style="fill:#484546;fill-opacity:1;fill-rule:nonzero;stroke:none"
             id="path205" /></g><g
           id="g207"
           transform="translate(178.0459,161.1323)"><path
             d="M 0,0 3.587,-0.005 V -4.31 c 0,-1.03 -1.585,-1.867 -3.543,-1.867 z"
             style="fill:#403c3d;fill-opacity:1;fill-rule:nonzero;stroke:none"
             id="path209" /></g><g
           id="g211"
           transform="translate(180.9301,187.1751)"><path
             d="m 0,0 c 0.442,-0.355 0.703,-0.798 0.703,-1.276 v -28.905 c 0,-0.492 -0.279,-0.951 -0.749,-1.31 z"
             style="fill:#393536;fill-opacity:1;fill-rule:nonzero;stroke:none"
             id="path213" /></g><g
           id="g215"
           transform="translate(146.3747,161.1323)"><path
             d="M 0,0 -3.587,-0.005 V -4.31 c 0,-1.03 1.584,-1.867 3.543,-1.867 z"
             style="fill:#403c3d;fill-opacity:1;fill-rule:nonzero;stroke:none"
             id="path217" /></g><g
           id="g219"
           transform="translate(217.0883,158.8806)"><path
             d="m 0,0 c 0.117,0.002 0.233,0.01 0.348,0.018 0.033,0.003 0.064,0.007 0.098,0.011 0.041,0.005 0.081,0.009 0.121,0.015 0.045,0.004 0.092,0.008 0.137,0.013 0.131,0.021 0.258,0.041 0.382,0.069 0.01,0.001 0.02,0.006 0.031,0.008 0.057,0.011 0.11,0.027 0.166,0.04 0.084,0.02 0.17,0.039 0.251,0.062 0.031,0.01 0.055,0.024 0.087,0.035 0.211,0.068 0.408,0.144 0.586,0.234 0.023,0.011 0.048,0.019 0.069,0.028 0.194,0.103 0.36,0.218 0.505,0.341 0.042,0.035 0.075,0.072 0.111,0.107 0.099,0.096 0.18,0.198 0.247,0.304 0.025,0.041 0.052,0.081 0.073,0.125 0.069,0.145 0.117,0.295 0.117,0.451 v -25.629 c 0,-0.156 -0.048,-0.305 -0.117,-0.45 -0.021,-0.043 -0.048,-0.084 -0.073,-0.125 -0.065,-0.107 -0.148,-0.208 -0.248,-0.306 -0.035,-0.036 -0.068,-0.07 -0.108,-0.105 -0.147,-0.124 -0.313,-0.239 -0.507,-0.341 -0.021,-0.008 -0.045,-0.016 -0.066,-0.027 -0.179,-0.089 -0.379,-0.166 -0.592,-0.235 -0.124,-0.041 -0.249,-0.079 -0.381,-0.109 -0.031,-0.007 -0.06,-0.017 -0.092,-0.024 -0.193,-0.042 -0.396,-0.076 -0.606,-0.099 -0.022,-0.004 -0.044,-0.005 -0.067,-0.008 -0.22,-0.022 -0.446,-0.036 -0.679,-0.036 v 25.628 c 0.07,0 0.139,0.002 0.207,0.005"
             style="fill:#e0dfde;fill-opacity:1;fill-rule:nonzero;stroke:none"
             id="path221" /></g><g
           id="g223"
           transform="translate(219.6455,159.5869)"><path
             d="M 0,0 C 0.08,0.053 0.155,0.111 0.224,0.168 0.266,0.203 0.299,0.239 0.335,0.275 0.434,0.371 0.515,0.472 0.581,0.579 0.607,0.619 0.635,0.66 0.655,0.703 0.724,0.849 0.772,1 0.772,1.156 v -25.63 c 0,-0.157 -0.048,-0.305 -0.117,-0.451 -0.02,-0.042 -0.048,-0.083 -0.073,-0.124 -0.065,-0.107 -0.148,-0.208 -0.248,-0.306 -0.035,-0.035 -0.068,-0.07 -0.108,-0.105 -0.071,-0.059 -0.147,-0.116 -0.228,-0.172 z"
             style="fill:#adacab;fill-opacity:1;fill-rule:nonzero;stroke:none"
             id="path225" /></g><g
           id="g227"
           transform="translate(184.9457,158.8806)"><path
             d="m 0,0 c -0.117,0.002 -0.233,0.01 -0.348,0.018 -0.033,0.003 -0.064,0.007 -0.097,0.011 -0.042,0.005 -0.082,0.009 -0.122,0.015 -0.045,0.004 -0.092,0.008 -0.137,0.013 -0.13,0.021 -0.258,0.041 -0.382,0.069 -0.01,0.001 -0.02,0.006 -0.03,0.008 -0.057,0.011 -0.111,0.027 -0.166,0.04 -0.084,0.02 -0.171,0.039 -0.252,0.062 -0.032,0.01 -0.055,0.024 -0.087,0.035 -0.211,0.068 -0.407,0.144 -0.586,0.234 -0.022,0.011 -0.047,0.019 -0.068,0.028 -0.195,0.103 -0.361,0.218 -0.507,0.341 -0.041,0.035 -0.073,0.072 -0.11,0.107 -0.099,0.096 -0.181,0.198 -0.247,0.304 -0.025,0.041 -0.053,0.081 -0.073,0.125 -0.069,0.145 -0.116,0.295 -0.116,0.451 v -25.629 c 0,-0.156 0.048,-0.305 0.116,-0.45 0.02,-0.043 0.048,-0.084 0.073,-0.125 0.066,-0.107 0.148,-0.208 0.248,-0.306 0.036,-0.036 0.068,-0.07 0.108,-0.105 0.147,-0.124 0.313,-0.239 0.508,-0.341 0.02,-0.008 0.045,-0.016 0.065,-0.027 0.18,-0.089 0.38,-0.166 0.592,-0.235 0.124,-0.041 0.249,-0.079 0.381,-0.109 0.031,-0.007 0.06,-0.017 0.091,-0.024 0.194,-0.042 0.397,-0.076 0.607,-0.099 0.022,-0.004 0.044,-0.005 0.067,-0.008 0.22,-0.022 0.446,-0.036 0.679,-0.036 V -0.005 C 0.137,-0.005 0.069,-0.003 0,0"
             style="fill:#e0dfde;fill-opacity:1;fill-rule:nonzero;stroke:none"
             id="path229" /></g><g
           id="g231"
           transform="translate(216.8907,187.9248)"><path
             d="m 0,0 c 1.958,0 3.542,-0.837 3.542,-1.867 v -25.316 c 0,-1.03 -1.584,-1.866 -3.542,-1.866 h -31.738 c -1.952,0 -3.535,0.836 -3.535,1.866 v 25.316 c 0,1.03 1.583,1.867 3.535,1.867 z"
             style="fill:#4f4c4d;fill-opacity:1;fill-rule:nonzero;stroke:none"
             id="path233" /></g><path
           d="m 216.89,133.248 h -31.738 v 25.628 h 31.738 z"
           style="fill:#eae9e9;fill-opacity:1;fill-rule:nonzero;stroke:none"
           id="path235" /><g
           id="g237"
           transform="translate(220.4335,161.1272)"><path
             d="m 0,0 v -4.304 c 0,-1.031 -1.584,-1.868 -3.542,-1.868 h -31.739 c -1.951,0 -3.534,0.837 -3.534,1.868 v 4.349 z"
             style="fill:#444141;fill-opacity:1;fill-rule:nonzero;stroke:none"
             id="path239" /></g><g
           id="g241"
           transform="translate(216.8465,161.1323)"><path
             d="M 0,0 3.587,-0.005 V -4.31 c 0,-1.03 -1.585,-1.867 -3.543,-1.867 z"
             style="fill:#403c3d;fill-opacity:1;fill-rule:nonzero;stroke:none"
             id="path243" /></g><g
           id="g245"
           transform="translate(216.8907,187.9248)"><path
             d="m 0,0 c 1.958,0 3.542,-0.837 3.542,-1.867 v -25.316 c 0,-1.03 -1.584,-1.866 -3.542,-1.866 z"
             style="fill:#484546;fill-opacity:1;fill-rule:nonzero;stroke:none"
             id="path247" /></g><g
           id="g249"
           transform="translate(185.1529,187.9248)"><path
             d="m 0,0 c -1.958,0 -3.542,-0.837 -3.542,-1.867 v -25.316 c 0,-1.03 1.584,-1.866 3.542,-1.866 z"
             style="fill:#484546;fill-opacity:1;fill-rule:nonzero;stroke:none"
             id="path251" /></g><g
           id="g253"
           transform="translate(216.8465,161.1323)"><path
             d="M 0,0 3.587,-0.005 V -4.31 c 0,-1.03 -1.585,-1.867 -3.543,-1.867 z"
             style="fill:#403c3d;fill-opacity:1;fill-rule:nonzero;stroke:none"
             id="path255" /></g><g
           id="g257"
           transform="translate(219.7307,187.1751)"><path
             d="m 0,0 c 0.441,-0.355 0.703,-0.798 0.703,-1.276 v -28.905 c 0,-0.492 -0.279,-0.951 -0.749,-1.31 z"
             style="fill:#393536;fill-opacity:1;fill-rule:nonzero;stroke:none"
             id="path259" /></g><g
           id="g261"
           transform="translate(185.1745,161.1323)"><path
             d="M 0,0 -3.587,-0.005 V -4.31 c 0,-1.03 1.585,-1.867 3.543,-1.867 z"
             style="fill:#403c3d;fill-opacity:1;fill-rule:nonzero;stroke:none"
             id="path263" /></g><g
           id="g265"
           transform="translate(217.0861,186.7231)"><path
             d="m 0,0 c 0.117,0.003 0.233,0.011 0.348,0.02 0.033,0.003 0.064,0.007 0.097,0.01 0.041,0.004 0.082,0.009 0.123,0.014 0.044,0.004 0.091,0.009 0.136,0.015 0.13,0.019 0.258,0.041 0.382,0.067 0.01,0.002 0.02,0.007 0.031,0.008 0.057,0.012 0.11,0.027 0.166,0.04 0.084,0.021 0.17,0.039 0.251,0.064 0.031,0.009 0.055,0.024 0.087,0.034 0.211,0.067 0.407,0.145 0.586,0.235 0.022,0.01 0.048,0.017 0.069,0.028 0.194,0.102 0.36,0.218 0.506,0.34 0.041,0.036 0.074,0.072 0.11,0.107 0.099,0.097 0.181,0.197 0.247,0.304 0.025,0.041 0.053,0.08 0.073,0.124 0.069,0.146 0.116,0.296 0.116,0.452 v -25.628 c 0,-0.157 -0.048,-0.307 -0.117,-0.452 -0.019,-0.042 -0.046,-0.083 -0.072,-0.123 -0.066,-0.108 -0.148,-0.21 -0.248,-0.307 -0.035,-0.034 -0.068,-0.07 -0.108,-0.106 -0.146,-0.122 -0.313,-0.239 -0.507,-0.338 -0.021,-0.011 -0.046,-0.019 -0.066,-0.029 -0.18,-0.09 -0.381,-0.167 -0.592,-0.236 -0.124,-0.039 -0.249,-0.078 -0.381,-0.109 -0.031,-0.007 -0.061,-0.016 -0.092,-0.023 -0.193,-0.042 -0.396,-0.076 -0.606,-0.099 -0.022,-0.003 -0.044,-0.005 -0.067,-0.008 -0.22,-0.022 -0.446,-0.037 -0.678,-0.037 v 25.628 c 0.07,0 0.137,0.002 0.206,0.005"
             style="fill:#e0dfde;fill-opacity:1;fill-rule:nonzero;stroke:none"
             id="path267" /></g><g
           id="g269"
           transform="translate(219.6432,187.4292)"><path
             d="M 0,0 C 0.08,0.054 0.155,0.111 0.225,0.168 0.266,0.204 0.299,0.241 0.335,0.276 0.434,0.373 0.516,0.473 0.581,0.58 0.607,0.62 0.635,0.661 0.655,0.704 0.724,0.85 0.771,1 0.771,1.157 v -25.629 c 0,-0.156 -0.048,-0.307 -0.117,-0.453 -0.019,-0.042 -0.046,-0.082 -0.072,-0.122 -0.066,-0.108 -0.148,-0.209 -0.248,-0.307 -0.035,-0.034 -0.068,-0.071 -0.108,-0.106 -0.071,-0.059 -0.146,-0.117 -0.228,-0.171 z"
             style="fill:#adacab;fill-opacity:1;fill-rule:nonzero;stroke:none"
             id="path271" /></g><g
           id="g273"
           transform="translate(184.9438,186.7231)"><path
             d="m 0,0 c -0.118,0.003 -0.233,0.011 -0.348,0.02 -0.033,0.003 -0.064,0.007 -0.098,0.01 -0.041,0.004 -0.081,0.009 -0.122,0.014 -0.044,0.004 -0.093,0.009 -0.137,0.015 -0.13,0.019 -0.257,0.041 -0.381,0.067 -0.01,0.002 -0.021,0.007 -0.031,0.008 -0.058,0.012 -0.111,0.027 -0.166,0.04 -0.084,0.021 -0.17,0.039 -0.251,0.064 -0.032,0.009 -0.055,0.024 -0.087,0.034 -0.212,0.067 -0.408,0.145 -0.586,0.235 -0.023,0.01 -0.047,0.017 -0.068,0.028 -0.195,0.102 -0.361,0.218 -0.507,0.34 -0.042,0.036 -0.075,0.072 -0.11,0.107 -0.099,0.097 -0.181,0.197 -0.247,0.304 -0.025,0.041 -0.053,0.08 -0.073,0.124 -0.07,0.146 -0.117,0.296 -0.117,0.452 v -25.628 c 0,-0.157 0.049,-0.307 0.117,-0.452 0.02,-0.042 0.048,-0.083 0.073,-0.123 0.065,-0.108 0.148,-0.21 0.248,-0.307 0.034,-0.034 0.067,-0.07 0.108,-0.106 0.146,-0.122 0.313,-0.239 0.508,-0.338 0.02,-0.011 0.044,-0.019 0.065,-0.029 0.179,-0.09 0.38,-0.167 0.592,-0.236 0.124,-0.039 0.249,-0.078 0.381,-0.109 0.031,-0.007 0.06,-0.016 0.091,-0.023 0.194,-0.042 0.396,-0.076 0.607,-0.099 0.022,-0.003 0.044,-0.005 0.067,-0.008 0.22,-0.022 0.446,-0.037 0.678,-0.037 V -0.005 C 0.137,-0.005 0.068,-0.003 0,0"
             style="fill:#e0dfde;fill-opacity:1;fill-rule:nonzero;stroke:none"
             id="path275" /></g><g
           id="g277"
           transform="translate(216.8885,215.7683)"><path
             d="m 0,0 c 1.958,0 3.542,-0.837 3.542,-1.868 v -25.315 c 0,-1.03 -1.584,-1.867 -3.542,-1.867 h -31.738 c -1.952,0 -3.535,0.837 -3.535,1.867 v 25.315 c 0,1.031 1.583,1.868 3.535,1.868 z"
             style="fill:#4f4c4d;fill-opacity:1;fill-rule:nonzero;stroke:none"
             id="path279" /></g><path
           d="m 216.889,161.091 h -31.738 v 25.628 h 31.738 z"
           style="fill:#eae9e9;fill-opacity:1;fill-rule:nonzero;stroke:none"
           id="path281" /><g
           id="g283"
           transform="translate(220.4312,188.9703)"><path
             d="m 0,0 v -4.305 c 0,-1.03 -1.585,-1.867 -3.542,-1.867 h -31.739 c -1.951,0 -3.535,0.837 -3.535,1.867 v 4.35 z"
             style="fill:#444141;fill-opacity:1;fill-rule:nonzero;stroke:none"
             id="path285" /></g><g
           id="g287"
           transform="translate(216.8442,188.9747)"><path
             d="M 0,0 3.587,-0.005 V -4.31 c 0,-1.03 -1.585,-1.867 -3.543,-1.867 z"
             style="fill:#403c3d;fill-opacity:1;fill-rule:nonzero;stroke:none"
             id="path289" /></g><g
           id="g291"
           transform="translate(216.8885,215.7683)"><path
             d="M 0,0 C 1.958,0 3.542,-0.837 3.542,-1.868 V -27.183 C 3.542,-28.213 1.958,-29.05 0,-29.05 Z"
             style="fill:#484546;fill-opacity:1;fill-rule:nonzero;stroke:none"
             id="path293" /></g><g
           id="g295"
           transform="translate(185.1503,215.7683)"><path
             d="m 0,0 c -1.957,0 -3.542,-0.837 -3.542,-1.868 v -25.315 c 0,-1.03 1.585,-1.867 3.542,-1.867 z"
             style="fill:#484546;fill-opacity:1;fill-rule:nonzero;stroke:none"
             id="path297" /></g><g
           id="g299"
           transform="translate(216.8442,188.9747)"><path
             d="M 0,0 3.587,-0.005 V -4.31 c 0,-1.03 -1.585,-1.867 -3.543,-1.867 z"
             style="fill:#403c3d;fill-opacity:1;fill-rule:nonzero;stroke:none"
             id="path301" /></g><g
           id="g303"
           transform="translate(219.7285,215.0182)"><path
             d="M 0,0 C 0.441,-0.355 0.703,-0.797 0.703,-1.276 V -30.18 c 0,-0.495 -0.279,-0.95 -0.749,-1.311 z"
             style="fill:#393536;fill-opacity:1;fill-rule:nonzero;stroke:none"
             id="path305" /></g><g
           id="g307"
           transform="translate(185.1727,188.9747)"><path
             d="M 0,0 -3.587,-0.005 V -4.31 c 0,-1.03 1.585,-1.867 3.542,-1.867 z"
             style="fill:#403c3d;fill-opacity:1;fill-rule:nonzero;stroke:none"
             id="path309" /></g><g
           id="g311"
           transform="translate(255.8889,158.8806)"><path
             d="m 0,0 c 0.117,0.002 0.234,0.01 0.349,0.018 0.031,0.003 0.063,0.007 0.096,0.011 0.042,0.005 0.082,0.009 0.123,0.015 0.045,0.004 0.092,0.008 0.136,0.013 0.131,0.021 0.259,0.041 0.383,0.069 0.009,0.001 0.019,0.006 0.03,0.008 0.057,0.011 0.11,0.027 0.166,0.04 0.084,0.02 0.17,0.039 0.251,0.062 C 1.566,0.246 1.589,0.26 1.621,0.271 1.832,0.339 2.028,0.415 2.207,0.505 2.23,0.516 2.255,0.524 2.275,0.533 2.47,0.636 2.636,0.751 2.781,0.874 2.823,0.909 2.856,0.946 2.892,0.981 2.991,1.077 3.073,1.179 3.139,1.285 3.164,1.326 3.191,1.366 3.212,1.41 3.281,1.555 3.328,1.705 3.328,1.861 v -25.629 c 0,-0.156 -0.048,-0.305 -0.117,-0.45 -0.02,-0.043 -0.046,-0.084 -0.071,-0.125 -0.066,-0.107 -0.149,-0.208 -0.25,-0.306 -0.034,-0.036 -0.067,-0.07 -0.107,-0.105 -0.147,-0.124 -0.313,-0.239 -0.508,-0.341 -0.02,-0.008 -0.044,-0.016 -0.065,-0.027 -0.179,-0.089 -0.379,-0.166 -0.592,-0.235 -0.124,-0.041 -0.249,-0.079 -0.381,-0.109 -0.031,-0.007 -0.06,-0.017 -0.092,-0.024 -0.193,-0.042 -0.396,-0.076 -0.606,-0.099 -0.022,-0.004 -0.044,-0.005 -0.067,-0.008 -0.221,-0.022 -0.446,-0.036 -0.679,-0.036 v 25.628 c 0.07,0 0.139,0.002 0.207,0.005"
             style="fill:#e0dfde;fill-opacity:1;fill-rule:nonzero;stroke:none"
             id="path313" /></g><g
           id="g315"
           transform="translate(258.4464,159.5869)"><path
             d="M 0,0 C 0.081,0.053 0.155,0.111 0.224,0.168 0.265,0.203 0.299,0.239 0.335,0.275 0.434,0.371 0.515,0.472 0.581,0.579 0.607,0.619 0.634,0.66 0.655,0.703 0.723,0.849 0.77,1 0.77,1.156 v -25.63 c 0,-0.157 -0.048,-0.305 -0.117,-0.451 -0.019,-0.042 -0.046,-0.083 -0.07,-0.124 -0.066,-0.107 -0.149,-0.208 -0.25,-0.306 -0.034,-0.035 -0.068,-0.07 -0.107,-0.105 -0.071,-0.059 -0.147,-0.116 -0.228,-0.172 z"
             style="fill:#adacab;fill-opacity:1;fill-rule:nonzero;stroke:none"
             id="path317" /></g><g
           id="g319"
           transform="translate(223.747,158.8806)"><path
             d="m 0,0 c -0.118,0.002 -0.233,0.01 -0.349,0.018 -0.033,0.003 -0.064,0.007 -0.097,0.011 -0.041,0.005 -0.081,0.009 -0.122,0.015 -0.045,0.004 -0.093,0.008 -0.136,0.013 -0.131,0.021 -0.259,0.041 -0.383,0.069 -0.01,0.001 -0.021,0.006 -0.03,0.008 -0.057,0.011 -0.111,0.027 -0.167,0.04 -0.084,0.02 -0.17,0.039 -0.251,0.062 -0.031,0.01 -0.054,0.024 -0.086,0.035 -0.212,0.068 -0.408,0.144 -0.586,0.234 -0.023,0.011 -0.048,0.019 -0.07,0.028 -0.194,0.103 -0.359,0.218 -0.506,0.341 -0.041,0.035 -0.074,0.072 -0.11,0.107 -0.098,0.096 -0.18,0.198 -0.246,0.304 -0.026,0.041 -0.054,0.081 -0.073,0.125 -0.07,0.145 -0.117,0.295 -0.117,0.451 v -25.629 c 0,-0.156 0.048,-0.305 0.117,-0.45 0.019,-0.043 0.046,-0.084 0.072,-0.125 0.066,-0.107 0.149,-0.208 0.249,-0.306 0.034,-0.036 0.067,-0.07 0.108,-0.105 0.146,-0.124 0.312,-0.239 0.506,-0.341 0.021,-0.008 0.046,-0.016 0.066,-0.027 0.18,-0.089 0.38,-0.166 0.593,-0.235 0.123,-0.041 0.249,-0.079 0.38,-0.109 0.031,-0.007 0.061,-0.017 0.092,-0.024 0.194,-0.042 0.396,-0.076 0.607,-0.099 0.022,-0.004 0.044,-0.005 0.067,-0.008 0.219,-0.022 0.445,-0.036 0.678,-0.036 V -0.005 C 0.137,-0.005 0.068,-0.003 0,0"
             style="fill:#e0dfde;fill-opacity:1;fill-rule:nonzero;stroke:none"
             id="path321" /></g><g
           id="g323"
           transform="translate(255.6917,187.9248)"><path
             d="m 0,0 c 1.957,0 3.542,-0.837 3.542,-1.867 v -25.316 c 0,-1.03 -1.585,-1.866 -3.542,-1.866 h -31.738 c -1.952,0 -3.536,0.836 -3.536,1.866 v 25.316 c 0,1.03 1.584,1.867 3.536,1.867 z"
             style="fill:#4f4c4d;fill-opacity:1;fill-rule:nonzero;stroke:none"
             id="path325" /></g><path
           d="m 255.691,133.248 h -31.738 v 25.628 h 31.738 z"
           style="fill:#eae9e9;fill-opacity:1;fill-rule:nonzero;stroke:none"
           id="path327" /><g
           id="g329"
           transform="translate(259.234,161.1272)"><path
             d="m 0,0 v -4.304 c 0,-1.031 -1.586,-1.868 -3.542,-1.868 h -31.739 c -1.951,0 -3.535,0.837 -3.535,1.868 v 4.349 z"
             style="fill:#444141;fill-opacity:1;fill-rule:nonzero;stroke:none"
             id="path331" /></g><g
           id="g333"
           transform="translate(255.6474,161.1323)"><path
             d="M 0,0 3.587,-0.005 V -4.31 c 0,-1.03 -1.586,-1.867 -3.543,-1.867 z"
             style="fill:#403c3d;fill-opacity:1;fill-rule:nonzero;stroke:none"
             id="path335" /></g><g
           id="g337"
           transform="translate(255.6917,187.9248)"><path
             d="m 0,0 c 1.957,0 3.542,-0.837 3.542,-1.867 v -25.316 c 0,-1.03 -1.585,-1.866 -3.542,-1.866 z"
             style="fill:#484546;fill-opacity:1;fill-rule:nonzero;stroke:none"
             id="path339" /></g><g
           id="g341"
           transform="translate(223.9535,187.9248)"><path
             d="m 0,0 c -1.958,0 -3.543,-0.837 -3.543,-1.867 v -25.316 c 0,-1.03 1.585,-1.866 3.543,-1.866 z"
             style="fill:#484546;fill-opacity:1;fill-rule:nonzero;stroke:none"
             id="path343" /></g><g
           id="g345"
           transform="translate(255.6474,161.1323)"><path
             d="M 0,0 3.587,-0.005 V -4.31 c 0,-1.03 -1.586,-1.867 -3.543,-1.867 z"
             style="fill:#403c3d;fill-opacity:1;fill-rule:nonzero;stroke:none"
             id="path347" /></g><g
           id="g349"
           transform="translate(258.5312,187.1751)"><path
             d="m 0,0 c 0.441,-0.355 0.703,-0.798 0.703,-1.276 v -28.905 c 0,-0.492 -0.279,-0.951 -0.749,-1.31 z"
             style="fill:#393536;fill-opacity:1;fill-rule:nonzero;stroke:none"
             id="path351" /></g><g
           id="g353"
           transform="translate(223.9751,161.1323)"><path
             d="M 0,0 -3.587,-0.005 V -4.31 c 0,-1.03 1.585,-1.867 3.543,-1.867 z"
             style="fill:#403c3d;fill-opacity:1;fill-rule:nonzero;stroke:none"
             id="path355" /></g><g
           id="g357"
           transform="translate(294.6895,158.8806)"><path
             d="m 0,0 c 0.117,0.002 0.233,0.01 0.347,0.018 0.035,0.003 0.066,0.007 0.099,0.011 0.041,0.005 0.081,0.009 0.12,0.015 0.046,0.004 0.092,0.008 0.137,0.013 0.131,0.021 0.259,0.041 0.382,0.069 0.011,0.001 0.022,0.006 0.032,0.008 0.056,0.011 0.111,0.027 0.166,0.04 0.084,0.02 0.171,0.039 0.251,0.062 C 1.565,0.246 1.589,0.26 1.621,0.271 1.833,0.339 2.028,0.415 2.207,0.505 2.23,0.516 2.255,0.524 2.275,0.533 2.47,0.636 2.637,0.751 2.781,0.874 2.823,0.909 2.855,0.946 2.892,0.981 2.991,1.077 3.073,1.179 3.139,1.285 3.164,1.326 3.191,1.366 3.213,1.41 3.281,1.555 3.328,1.705 3.328,1.861 v -25.629 c 0,-0.156 -0.048,-0.305 -0.116,-0.45 -0.021,-0.043 -0.048,-0.084 -0.072,-0.125 -0.067,-0.107 -0.149,-0.208 -0.248,-0.306 -0.037,-0.036 -0.069,-0.07 -0.109,-0.105 -0.146,-0.124 -0.313,-0.239 -0.508,-0.341 -0.02,-0.008 -0.045,-0.016 -0.065,-0.027 -0.181,-0.089 -0.381,-0.166 -0.592,-0.235 -0.123,-0.041 -0.249,-0.079 -0.381,-0.109 -0.031,-0.007 -0.06,-0.017 -0.091,-0.024 -0.194,-0.042 -0.397,-0.076 -0.607,-0.099 -0.022,-0.004 -0.044,-0.005 -0.067,-0.008 -0.22,-0.022 -0.446,-0.036 -0.678,-0.036 v 25.628 c 0.068,0 0.138,0.002 0.206,0.005"
             style="fill:#e0dfde;fill-opacity:1;fill-rule:nonzero;stroke:none"
             id="path359" /></g><g
           id="g361"
           transform="translate(297.2477,159.5869)"><path
             d="M 0,0 C 0.079,0.053 0.153,0.111 0.223,0.168 0.265,0.203 0.297,0.239 0.334,0.275 0.432,0.371 0.515,0.472 0.581,0.579 0.606,0.619 0.633,0.66 0.655,0.703 0.722,0.849 0.77,1 0.77,1.156 v -25.63 c 0,-0.157 -0.048,-0.305 -0.117,-0.451 -0.02,-0.042 -0.046,-0.083 -0.071,-0.124 -0.067,-0.107 -0.15,-0.208 -0.249,-0.306 -0.036,-0.035 -0.068,-0.07 -0.107,-0.105 -0.073,-0.059 -0.147,-0.116 -0.229,-0.172 z"
             style="fill:#adacab;fill-opacity:1;fill-rule:nonzero;stroke:none"
             id="path363" /></g><g
           id="g365"
           transform="translate(262.5461,158.8806)"><path
             d="m 0,0 c -0.117,0.002 -0.232,0.01 -0.347,0.018 -0.033,0.003 -0.065,0.007 -0.098,0.011 -0.041,0.005 -0.08,0.009 -0.121,0.015 -0.045,0.004 -0.092,0.008 -0.137,0.013 -0.13,0.021 -0.258,0.041 -0.382,0.069 -0.011,0.001 -0.021,0.006 -0.031,0.008 -0.057,0.011 -0.111,0.027 -0.166,0.04 -0.084,0.02 -0.171,0.039 -0.25,0.062 -0.032,0.01 -0.056,0.024 -0.089,0.035 -0.21,0.068 -0.407,0.144 -0.586,0.234 -0.022,0.011 -0.047,0.019 -0.067,0.028 -0.196,0.103 -0.362,0.218 -0.507,0.341 -0.041,0.035 -0.074,0.072 -0.11,0.107 -0.099,0.096 -0.181,0.198 -0.248,0.304 -0.025,0.041 -0.052,0.081 -0.072,0.125 -0.07,0.145 -0.117,0.295 -0.117,0.451 v -25.629 c 0,-0.156 0.048,-0.305 0.117,-0.45 0.02,-0.043 0.047,-0.084 0.072,-0.125 0.067,-0.107 0.149,-0.208 0.249,-0.306 0.035,-0.036 0.068,-0.07 0.108,-0.105 0.146,-0.124 0.312,-0.239 0.508,-0.341 0.02,-0.008 0.044,-0.016 0.065,-0.027 0.18,-0.089 0.38,-0.166 0.592,-0.235 0.123,-0.041 0.249,-0.079 0.38,-0.109 0.032,-0.007 0.061,-0.017 0.093,-0.024 0.193,-0.042 0.397,-0.076 0.605,-0.099 0.023,-0.004 0.044,-0.005 0.068,-0.008 0.22,-0.022 0.447,-0.036 0.679,-0.036 V -0.005 C 0.139,-0.005 0.069,-0.003 0,0"
             style="fill:#e0dfde;fill-opacity:1;fill-rule:nonzero;stroke:none"
             id="path367" /></g><g
           id="g369"
           transform="translate(294.4922,187.9248)"><path
             d="m 0,0 c 1.957,0 3.542,-0.837 3.542,-1.867 v -25.316 c 0,-1.03 -1.585,-1.866 -3.542,-1.866 h -31.738 c -1.952,0 -3.536,0.836 -3.536,1.866 v 25.316 c 0,1.03 1.584,1.867 3.536,1.867 z"
             style="fill:#4f4c4d;fill-opacity:1;fill-rule:nonzero;stroke:none"
             id="path371" /></g><path
           d="m 294.492,133.248 h -31.738 v 25.628 h 31.738 z"
           style="fill:#eae9e9;fill-opacity:1;fill-rule:nonzero;stroke:none"
           id="path373" /><g
           id="g375"
           transform="translate(298.035,161.1272)"><path
             d="m 0,0 v -4.304 c 0,-1.031 -1.585,-1.868 -3.542,-1.868 h -31.739 c -1.952,0 -3.536,0.837 -3.536,1.868 v 4.349 z"
             style="fill:#444141;fill-opacity:1;fill-rule:nonzero;stroke:none"
             id="path377" /></g><g
           id="g379"
           transform="translate(294.4476,161.1323)"><path
             d="M 0,0 3.587,-0.005 V -4.31 c 0,-1.03 -1.585,-1.867 -3.542,-1.867 z"
             style="fill:#403c3d;fill-opacity:1;fill-rule:nonzero;stroke:none"
             id="path381" /></g><g
           id="g383"
           transform="translate(294.4922,187.9248)"><path
             d="m 0,0 c 1.957,0 3.542,-0.837 3.542,-1.867 v -25.316 c 0,-1.03 -1.585,-1.866 -3.542,-1.866 z"
             style="fill:#484546;fill-opacity:1;fill-rule:nonzero;stroke:none"
             id="path385" /></g><g
           id="g387"
           transform="translate(262.7545,187.9248)"><path
             d="m 0,0 c -1.958,0 -3.543,-0.837 -3.543,-1.867 v -25.316 c 0,-1.03 1.585,-1.866 3.543,-1.866 z"
             style="fill:#484546;fill-opacity:1;fill-rule:nonzero;stroke:none"
             id="path389" /></g><g
           id="g391"
           transform="translate(294.4476,161.1323)"><path
             d="M 0,0 3.587,-0.005 V -4.31 c 0,-1.03 -1.585,-1.867 -3.542,-1.867 z"
             style="fill:#403c3d;fill-opacity:1;fill-rule:nonzero;stroke:none"
             id="path393" /></g><g
           id="g395"
           transform="translate(297.3318,187.1751)"><path
             d="m 0,0 c 0.441,-0.355 0.703,-0.798 0.703,-1.276 v -28.905 c 0,-0.492 -0.279,-0.951 -0.749,-1.31 z"
             style="fill:#393536;fill-opacity:1;fill-rule:nonzero;stroke:none"
             id="path397" /></g><g
           id="g399"
           transform="translate(262.7756,161.1323)"><path
             d="M 0,0 -3.587,-0.005 V -4.31 c 0,-1.03 1.585,-1.867 3.543,-1.867 z"
             style="fill:#403c3d;fill-opacity:1;fill-rule:nonzero;stroke:none"
             id="path401" /></g><g
           id="g403"
           transform="translate(294.6865,186.7231)"><path
             d="m 0,0 c 0.118,0.003 0.233,0.011 0.348,0.02 0.035,0.003 0.065,0.007 0.099,0.01 0.04,0.004 0.081,0.009 0.121,0.014 0.045,0.004 0.092,0.009 0.137,0.015 0.129,0.019 0.258,0.041 0.382,0.067 0.011,0.002 0.021,0.007 0.031,0.008 0.055,0.012 0.11,0.027 0.166,0.04 0.084,0.021 0.17,0.039 0.251,0.064 0.031,0.009 0.056,0.024 0.087,0.034 0.21,0.067 0.408,0.145 0.585,0.235 0.023,0.01 0.049,0.017 0.07,0.028 0.194,0.102 0.36,0.218 0.506,0.34 0.041,0.036 0.074,0.072 0.111,0.107 0.098,0.097 0.179,0.197 0.246,0.304 0.024,0.041 0.053,0.08 0.073,0.124 0.07,0.146 0.117,0.296 0.117,0.452 v -25.628 c 0,-0.157 -0.049,-0.307 -0.117,-0.452 -0.02,-0.042 -0.048,-0.083 -0.073,-0.123 -0.066,-0.108 -0.148,-0.21 -0.249,-0.307 -0.034,-0.034 -0.067,-0.07 -0.107,-0.106 -0.147,-0.122 -0.313,-0.239 -0.507,-0.338 -0.021,-0.011 -0.046,-0.019 -0.067,-0.029 -0.179,-0.09 -0.38,-0.167 -0.591,-0.236 -0.123,-0.039 -0.249,-0.078 -0.381,-0.109 -0.03,-0.007 -0.062,-0.016 -0.092,-0.023 -0.194,-0.042 -0.398,-0.076 -0.606,-0.099 -0.023,-0.003 -0.044,-0.005 -0.068,-0.008 -0.22,-0.022 -0.446,-0.037 -0.678,-0.037 v 25.628 c 0.069,0 0.139,0.002 0.206,0.005"
             style="fill:#e0dfde;fill-opacity:1;fill-rule:nonzero;stroke:none"
             id="path405" /></g><g
           id="g407"
           transform="translate(297.244,187.4292)"><path
             d="M 0,0 C 0.081,0.054 0.155,0.111 0.226,0.168 0.267,0.204 0.299,0.241 0.336,0.276 0.434,0.373 0.516,0.473 0.583,0.58 0.607,0.62 0.635,0.661 0.655,0.704 0.725,0.85 0.773,1 0.773,1.157 v -25.629 c 0,-0.156 -0.05,-0.307 -0.118,-0.453 -0.02,-0.042 -0.047,-0.082 -0.072,-0.122 -0.066,-0.108 -0.149,-0.209 -0.25,-0.307 -0.034,-0.034 -0.066,-0.071 -0.107,-0.106 -0.071,-0.059 -0.147,-0.117 -0.227,-0.171 z"
             style="fill:#adacab;fill-opacity:1;fill-rule:nonzero;stroke:none"
             id="path409" /></g><g
           id="g411"
           transform="translate(262.5442,186.7231)"><path
             d="m 0,0 c -0.117,0.003 -0.232,0.011 -0.347,0.02 -0.034,0.003 -0.065,0.007 -0.098,0.01 -0.041,0.004 -0.081,0.009 -0.123,0.014 -0.043,0.004 -0.09,0.009 -0.135,0.015 -0.131,0.019 -0.258,0.041 -0.382,0.067 -0.011,0.002 -0.021,0.007 -0.031,0.008 -0.058,0.012 -0.111,0.027 -0.166,0.04 -0.084,0.021 -0.171,0.039 -0.252,0.064 -0.031,0.009 -0.054,0.024 -0.086,0.034 -0.212,0.067 -0.408,0.145 -0.587,0.235 -0.022,0.01 -0.047,0.017 -0.068,0.028 -0.195,0.102 -0.361,0.218 -0.506,0.34 -0.041,0.036 -0.074,0.072 -0.11,0.107 -0.099,0.097 -0.181,0.197 -0.248,0.304 -0.025,0.041 -0.052,0.08 -0.073,0.124 -0.069,0.146 -0.116,0.296 -0.116,0.452 v -25.628 c 0,-0.157 0.048,-0.307 0.117,-0.452 0.02,-0.042 0.047,-0.083 0.072,-0.123 0.067,-0.108 0.149,-0.21 0.249,-0.307 0.035,-0.034 0.068,-0.07 0.107,-0.106 0.146,-0.122 0.313,-0.239 0.508,-0.338 0.02,-0.011 0.045,-0.019 0.065,-0.029 0.181,-0.09 0.381,-0.167 0.592,-0.236 0.124,-0.039 0.25,-0.078 0.381,-0.109 0.031,-0.007 0.061,-0.016 0.092,-0.023 0.193,-0.042 0.398,-0.076 0.606,-0.099 0.023,-0.003 0.044,-0.005 0.067,-0.008 0.22,-0.022 0.447,-0.037 0.68,-0.037 V -0.005 C 0.138,-0.005 0.069,-0.003 0,0"
             style="fill:#e0dfde;fill-opacity:1;fill-rule:nonzero;stroke:none"
             id="path413" /></g><g
           id="g415"
           transform="translate(294.4901,215.7683)"><path
             d="m 0,0 c 1.958,0 3.542,-0.837 3.542,-1.868 v -25.315 c 0,-1.03 -1.584,-1.867 -3.542,-1.867 h -31.738 c -1.952,0 -3.536,0.837 -3.536,1.867 v 25.315 c 0,1.031 1.584,1.868 3.536,1.868 z"
             style="fill:#4f4c4d;fill-opacity:1;fill-rule:nonzero;stroke:none"
             id="path417" /></g><path
           d="m 294.49,161.091 h -31.738 v 25.628 h 31.738 z"
           style="fill:#eae9e9;fill-opacity:1;fill-rule:nonzero;stroke:none"
           id="path419" /><g
           id="g421"
           transform="translate(298.032,188.9703)"><path
             d="m 0,0 v -4.305 c 0,-1.03 -1.583,-1.867 -3.542,-1.867 H -35.28 c -1.951,0 -3.536,0.837 -3.536,1.867 v 4.35 z"
             style="fill:#444141;fill-opacity:1;fill-rule:nonzero;stroke:none"
             id="path423" /></g><g
           id="g425"
           transform="translate(294.4462,188.9747)"><path
             d="M 0,0 3.586,-0.005 V -4.31 c 0,-1.03 -1.584,-1.867 -3.542,-1.867 z"
             style="fill:#403c3d;fill-opacity:1;fill-rule:nonzero;stroke:none"
             id="path427" /></g><g
           id="g429"
           transform="translate(294.4901,215.7683)"><path
             d="M 0,0 C 1.958,0 3.542,-0.837 3.542,-1.868 V -27.183 C 3.542,-28.213 1.958,-29.05 0,-29.05 Z"
             style="fill:#484546;fill-opacity:1;fill-rule:nonzero;stroke:none"
             id="path431" /></g><g
           id="g433"
           transform="translate(262.7522,215.7683)"><path
             d="m 0,0 c -1.958,0 -3.543,-0.837 -3.543,-1.868 v -25.315 c 0,-1.03 1.585,-1.867 3.543,-1.867 z"
             style="fill:#484546;fill-opacity:1;fill-rule:nonzero;stroke:none"
             id="path435" /></g><g
           id="g437"
           transform="translate(294.4462,188.9747)"><path
             d="M 0,0 3.586,-0.005 V -4.31 c 0,-1.03 -1.584,-1.867 -3.542,-1.867 z"
             style="fill:#403c3d;fill-opacity:1;fill-rule:nonzero;stroke:none"
             id="path439" /></g><g
           id="g441"
           transform="translate(297.3303,215.0182)"><path
             d="M 0,0 C 0.44,-0.355 0.702,-0.797 0.702,-1.276 V -30.18 c 0,-0.495 -0.279,-0.95 -0.748,-1.311 z"
             style="fill:#393536;fill-opacity:1;fill-rule:nonzero;stroke:none"
             id="path443" /></g><g
           id="g445"
           transform="translate(262.7737,188.9747)"><path
             d="M 0,0 -3.587,-0.005 V -4.31 c 0,-1.03 1.585,-1.867 3.543,-1.867 z"
             style="fill:#403c3d;fill-opacity:1;fill-rule:nonzero;stroke:none"
             id="path447" /></g><g
           id="g449"
           transform="translate(333.4896,158.8806)"><path
             d="M 0,0 C 0.117,0.002 0.234,0.01 0.348,0.018 0.382,0.021 0.413,0.025 0.445,0.029 0.487,0.034 0.527,0.038 0.567,0.044 0.613,0.048 0.66,0.052 0.704,0.057 0.835,0.078 0.963,0.098 1.088,0.126 1.096,0.127 1.108,0.132 1.117,0.134 1.174,0.145 1.228,0.161 1.283,0.174 1.367,0.194 1.454,0.213 1.535,0.236 1.566,0.246 1.589,0.26 1.623,0.271 1.832,0.339 2.029,0.415 2.207,0.505 2.23,0.516 2.255,0.524 2.278,0.533 2.47,0.636 2.637,0.751 2.781,0.874 2.824,0.909 2.857,0.946 2.893,0.981 2.992,1.077 3.073,1.179 3.14,1.285 3.164,1.326 3.193,1.366 3.212,1.41 3.283,1.555 3.328,1.705 3.328,1.861 v -25.629 c 0,-0.156 -0.047,-0.305 -0.117,-0.45 C 3.193,-24.261 3.166,-24.302 3.14,-24.343 3.073,-24.45 2.992,-24.551 2.891,-24.649 2.857,-24.685 2.824,-24.719 2.784,-24.754 2.637,-24.878 2.47,-24.993 2.278,-25.095 2.255,-25.103 2.233,-25.111 2.21,-25.122 2.03,-25.211 1.83,-25.288 1.619,-25.357 1.496,-25.398 1.37,-25.436 1.238,-25.466 1.208,-25.473 1.177,-25.483 1.146,-25.49 0.952,-25.532 0.749,-25.566 0.542,-25.589 0.517,-25.593 0.495,-25.594 0.471,-25.597 0.252,-25.619 0.027,-25.633 -0.206,-25.633 v 25.628 c 0.07,0 0.14,0.002 0.206,0.005"
             style="fill:#e0dfde;fill-opacity:1;fill-rule:nonzero;stroke:none"
             id="path451" /></g><g
           id="g453"
           transform="translate(336.0471,159.5869)"><path
             d="M 0,0 C 0.079,0.053 0.155,0.111 0.224,0.168 0.267,0.203 0.299,0.239 0.335,0.275 0.434,0.371 0.516,0.472 0.583,0.579 0.607,0.619 0.635,0.66 0.654,0.703 0.725,0.849 0.77,1 0.77,1.156 v -25.63 c 0,-0.157 -0.047,-0.305 -0.117,-0.451 -0.018,-0.042 -0.044,-0.083 -0.07,-0.124 -0.067,-0.107 -0.149,-0.208 -0.25,-0.306 -0.034,-0.035 -0.066,-0.07 -0.106,-0.105 -0.072,-0.059 -0.148,-0.116 -0.229,-0.172 z"
             style="fill:#adacab;fill-opacity:1;fill-rule:nonzero;stroke:none"
             id="path455" /></g><g
           id="g457"
           transform="translate(301.3478,158.8806)"><path
             d="m 0,0 c -0.117,0.002 -0.234,0.01 -0.349,0.018 -0.033,0.003 -0.064,0.007 -0.096,0.011 -0.042,0.005 -0.081,0.009 -0.123,0.015 -0.044,0.004 -0.09,0.008 -0.137,0.013 -0.129,0.021 -0.257,0.041 -0.381,0.069 -0.01,0.001 -0.02,0.006 -0.033,0.008 -0.055,0.011 -0.108,0.027 -0.164,0.04 -0.085,0.02 -0.171,0.039 -0.251,0.062 -0.032,0.01 -0.055,0.024 -0.087,0.035 -0.211,0.068 -0.407,0.144 -0.586,0.234 -0.023,0.011 -0.048,0.019 -0.069,0.028 -0.194,0.103 -0.36,0.218 -0.505,0.341 -0.042,0.035 -0.074,0.072 -0.112,0.107 -0.098,0.096 -0.18,0.198 -0.246,0.304 -0.025,0.041 -0.052,0.081 -0.074,0.125 -0.068,0.145 -0.115,0.295 -0.115,0.451 v -25.629 c 0,-0.156 0.048,-0.305 0.117,-0.45 0.02,-0.043 0.046,-0.084 0.071,-0.125 0.067,-0.107 0.149,-0.208 0.248,-0.306 0.037,-0.036 0.069,-0.07 0.108,-0.105 0.147,-0.124 0.314,-0.239 0.508,-0.341 0.021,-0.008 0.045,-0.016 0.066,-0.027 0.18,-0.089 0.381,-0.166 0.592,-0.235 0.123,-0.041 0.249,-0.079 0.381,-0.109 0.029,-0.007 0.06,-0.017 0.09,-0.024 0.195,-0.042 0.399,-0.076 0.609,-0.099 0.021,-0.004 0.043,-0.005 0.066,-0.008 0.221,-0.022 0.446,-0.036 0.679,-0.036 V -0.005 C 0.136,-0.005 0.067,-0.003 0,0"
             style="fill:#e0dfde;fill-opacity:1;fill-rule:nonzero;stroke:none"
             id="path459" /></g><g
           id="g461"
           transform="translate(333.2939,187.9248)"><path
             d="m 0,0 c 1.956,0 3.542,-0.837 3.542,-1.867 v -25.316 c 0,-1.03 -1.586,-1.866 -3.542,-1.866 h -31.738 c -1.952,0 -3.537,0.836 -3.537,1.866 v 25.316 c 0,1.03 1.585,1.867 3.537,1.867 z"
             style="fill:#4f4c4d;fill-opacity:1;fill-rule:nonzero;stroke:none"
             id="path463" /></g><path
           d="m 333.294,133.248 h -31.738 v 25.628 h 31.738 z"
           style="fill:#eae9e9;fill-opacity:1;fill-rule:nonzero;stroke:none"
           id="path465" /><g
           id="g467"
           transform="translate(336.8359,161.1272)"><path
             d="m 0,0 v -4.304 c 0,-1.031 -1.586,-1.868 -3.542,-1.868 h -31.739 c -1.951,0 -3.535,0.837 -3.535,1.868 v 4.349 z"
             style="fill:#444141;fill-opacity:1;fill-rule:nonzero;stroke:none"
             id="path469" /></g><g
           id="g471"
           transform="translate(333.2485,161.1323)"><path
             d="M 0,0 3.587,-0.005 V -4.31 c 0,-1.03 -1.585,-1.867 -3.541,-1.867 z"
             style="fill:#403c3d;fill-opacity:1;fill-rule:nonzero;stroke:none"
             id="path473" /></g><g
           id="g475"
           transform="translate(333.2939,187.9248)"><path
             d="m 0,0 c 1.956,0 3.542,-0.837 3.542,-1.867 v -25.316 c 0,-1.03 -1.586,-1.866 -3.542,-1.866 z"
             style="fill:#484546;fill-opacity:1;fill-rule:nonzero;stroke:none"
             id="path477" /></g><g
           id="g479"
           transform="translate(301.5553,187.9248)"><path
             d="m 0,0 c -1.957,0 -3.542,-0.837 -3.542,-1.867 v -25.316 c 0,-1.03 1.585,-1.866 3.542,-1.866 z"
             style="fill:#484546;fill-opacity:1;fill-rule:nonzero;stroke:none"
             id="path481" /></g><g
           id="g483"
           transform="translate(333.2485,161.1323)"><path
             d="M 0,0 3.587,-0.005 V -4.31 c 0,-1.03 -1.585,-1.867 -3.541,-1.867 z"
             style="fill:#403c3d;fill-opacity:1;fill-rule:nonzero;stroke:none"
             id="path485" /></g><g
           id="g487"
           transform="translate(336.1327,187.1751)"><path
             d="m 0,0 c 0.442,-0.355 0.703,-0.798 0.703,-1.276 v -28.905 c 0,-0.492 -0.279,-0.951 -0.748,-1.31 z"
             style="fill:#393536;fill-opacity:1;fill-rule:nonzero;stroke:none"
             id="path489" /></g><g
           id="g491"
           transform="translate(301.5776,161.1323)"><path
             d="M 0,0 -3.588,-0.005 V -4.31 c 0,-1.03 1.584,-1.867 3.542,-1.867 z"
             style="fill:#403c3d;fill-opacity:1;fill-rule:nonzero;stroke:none"
             id="path493" /></g><g
           id="g495"
           transform="translate(333.4881,186.7231)"><path
             d="m 0,0 c 0.117,0.003 0.232,0.011 0.347,0.02 0.033,0.003 0.065,0.007 0.099,0.01 0.04,0.004 0.081,0.009 0.12,0.014 0.045,0.004 0.093,0.009 0.139,0.015 0.129,0.019 0.257,0.041 0.382,0.067 0.009,0.002 0.02,0.007 0.029,0.008 0.057,0.012 0.11,0.027 0.167,0.04 0.084,0.021 0.169,0.039 0.251,0.064 0.032,0.009 0.055,0.024 0.087,0.034 0.209,0.067 0.408,0.145 0.586,0.235 0.022,0.01 0.047,0.017 0.069,0.028 0.194,0.102 0.36,0.218 0.505,0.34 0.041,0.036 0.074,0.072 0.111,0.107 0.099,0.097 0.179,0.197 0.245,0.304 0.027,0.041 0.055,0.08 0.075,0.124 0.071,0.146 0.116,0.296 0.116,0.452 v -25.628 c 0,-0.157 -0.046,-0.307 -0.117,-0.452 -0.019,-0.042 -0.047,-0.083 -0.072,-0.123 -0.067,-0.108 -0.148,-0.21 -0.247,-0.307 -0.037,-0.034 -0.07,-0.07 -0.109,-0.106 -0.147,-0.122 -0.313,-0.239 -0.507,-0.338 -0.022,-0.011 -0.045,-0.019 -0.067,-0.029 -0.18,-0.09 -0.379,-0.167 -0.593,-0.236 -0.121,-0.039 -0.247,-0.078 -0.38,-0.109 -0.03,-0.007 -0.06,-0.016 -0.091,-0.023 -0.195,-0.042 -0.396,-0.076 -0.605,-0.099 -0.023,-0.003 -0.047,-0.005 -0.069,-0.008 -0.22,-0.022 -0.445,-0.037 -0.678,-0.037 v 25.628 c 0.071,0 0.138,0.002 0.207,0.005"
             style="fill:#e0dfde;fill-opacity:1;fill-rule:nonzero;stroke:none"
             id="path497" /></g><g
           id="g499"
           transform="translate(336.0457,187.4292)"><path
             d="M 0,0 C 0.08,0.054 0.155,0.111 0.224,0.168 0.265,0.204 0.298,0.241 0.334,0.276 0.433,0.373 0.514,0.473 0.58,0.58 0.607,0.62 0.635,0.661 0.655,0.704 0.725,0.85 0.77,1 0.77,1.157 v -25.629 c 0,-0.156 -0.046,-0.307 -0.117,-0.453 -0.018,-0.042 -0.046,-0.082 -0.072,-0.122 -0.066,-0.108 -0.148,-0.209 -0.247,-0.307 -0.036,-0.034 -0.069,-0.071 -0.108,-0.106 -0.071,-0.059 -0.148,-0.117 -0.228,-0.171 z"
             style="fill:#adacab;fill-opacity:1;fill-rule:nonzero;stroke:none"
             id="path501" /></g><g
           id="g503"
           transform="translate(301.3463,186.7231)"><path
             d="m 0,0 c -0.118,0.003 -0.236,0.011 -0.349,0.02 -0.033,0.003 -0.066,0.007 -0.097,0.01 -0.042,0.004 -0.081,0.009 -0.122,0.014 -0.045,0.004 -0.093,0.009 -0.137,0.015 -0.131,0.019 -0.259,0.041 -0.382,0.067 -0.009,0.002 -0.02,0.007 -0.032,0.008 -0.056,0.012 -0.108,0.027 -0.166,0.04 -0.083,0.021 -0.169,0.039 -0.25,0.064 -0.031,0.009 -0.054,0.024 -0.086,0.034 -0.211,0.067 -0.409,0.145 -0.587,0.235 -0.022,0.01 -0.047,0.017 -0.069,0.028 -0.193,0.102 -0.36,0.218 -0.505,0.34 -0.041,0.036 -0.075,0.072 -0.112,0.107 -0.098,0.097 -0.179,0.197 -0.245,0.304 -0.025,0.041 -0.053,0.08 -0.074,0.124 -0.069,0.146 -0.116,0.296 -0.116,0.452 v -25.628 c 0,-0.157 0.047,-0.307 0.117,-0.452 0.02,-0.042 0.047,-0.083 0.07,-0.123 0.067,-0.108 0.15,-0.21 0.25,-0.307 0.035,-0.034 0.069,-0.07 0.108,-0.106 0.146,-0.122 0.314,-0.239 0.507,-0.338 0.02,-0.011 0.044,-0.019 0.067,-0.029 0.179,-0.09 0.379,-0.167 0.592,-0.236 0.122,-0.039 0.247,-0.078 0.38,-0.109 0.03,-0.007 0.061,-0.016 0.091,-0.023 0.194,-0.042 0.397,-0.076 0.606,-0.099 0.023,-0.003 0.044,-0.005 0.068,-0.008 0.221,-0.022 0.446,-0.037 0.679,-0.037 V -0.005 C 0.136,-0.005 0.067,-0.003 0,0"
             style="fill:#e0dfde;fill-opacity:1;fill-rule:nonzero;stroke:none"
             id="path505" /></g><g
           id="g507"
           transform="translate(333.2909,215.7683)"><path
             d="m 0,0 c 1.958,0 3.542,-0.837 3.542,-1.868 v -25.315 c 0,-1.03 -1.584,-1.867 -3.542,-1.867 h -31.738 c -1.952,0 -3.536,0.837 -3.536,1.867 v 25.315 c 0,1.031 1.584,1.868 3.536,1.868 z"
             style="fill:#4f4c4d;fill-opacity:1;fill-rule:nonzero;stroke:none"
             id="path509" /></g><path
           d="m 333.291,161.091 h -31.738 v 25.628 h 31.738 z"
           style="fill:#eae9e9;fill-opacity:1;fill-rule:nonzero;stroke:none"
           id="path511" /><g
           id="g513"
           transform="translate(336.8329,188.9703)"><path
             d="m 0,0 v -4.305 c 0,-1.03 -1.583,-1.867 -3.542,-1.867 H -35.28 c -1.952,0 -3.536,0.837 -3.536,1.867 v 4.35 z"
             style="fill:#444141;fill-opacity:1;fill-rule:nonzero;stroke:none"
             id="path515" /></g><g
           id="g517"
           transform="translate(333.2456,188.9747)"><path
             d="M 0,0 3.587,-0.005 V -4.31 c 0,-1.03 -1.583,-1.867 -3.541,-1.867 z"
             style="fill:#403c3d;fill-opacity:1;fill-rule:nonzero;stroke:none"
             id="path519" /></g><g
           id="g521"
           transform="translate(333.2909,215.7683)"><path
             d="M 0,0 C 1.958,0 3.542,-0.837 3.542,-1.868 V -27.183 C 3.542,-28.213 1.958,-29.05 0,-29.05 Z"
             style="fill:#484546;fill-opacity:1;fill-rule:nonzero;stroke:none"
             id="path523" /></g><g
           id="g525"
           transform="translate(301.5531,215.7683)"><path
             d="m 0,0 c -1.959,0 -3.542,-0.837 -3.542,-1.868 v -25.315 c 0,-1.03 1.583,-1.867 3.542,-1.867 z"
             style="fill:#484546;fill-opacity:1;fill-rule:nonzero;stroke:none"
             id="path527" /></g><g
           id="g529"
           transform="translate(333.2456,188.9747)"><path
             d="M 0,0 3.587,-0.005 V -4.31 c 0,-1.03 -1.583,-1.867 -3.541,-1.867 z"
             style="fill:#403c3d;fill-opacity:1;fill-rule:nonzero;stroke:none"
             id="path531" /></g><g
           id="g533"
           transform="translate(336.1297,215.0182)"><path
             d="M 0,0 C 0.441,-0.355 0.703,-0.797 0.703,-1.276 V -30.18 c 0,-0.495 -0.279,-0.95 -0.749,-1.311 z"
             style="fill:#393536;fill-opacity:1;fill-rule:nonzero;stroke:none"
             id="path535" /></g><g
           id="g537"
           transform="translate(301.5747,188.9747)"><path
             d="M 0,0 -3.587,-0.005 V -4.31 c 0,-1.03 1.584,-1.867 3.541,-1.867 z"
             style="fill:#403c3d;fill-opacity:1;fill-rule:nonzero;stroke:none"
             id="path539" /></g><g
           id="g541"
           transform="translate(372.2898,158.8806)"><path
             d="m 0,0 c 0.118,0.002 0.235,0.01 0.349,0.018 0.033,0.003 0.065,0.007 0.097,0.011 0.041,0.005 0.081,0.009 0.122,0.015 0.045,0.004 0.093,0.008 0.137,0.013 0.131,0.021 0.259,0.041 0.383,0.069 0.008,0.001 0.018,0.006 0.031,0.008 0.056,0.011 0.109,0.027 0.165,0.04 0.083,0.02 0.17,0.039 0.252,0.062 C 1.565,0.246 1.589,0.26 1.622,0.271 1.833,0.339 2.03,0.415 2.208,0.505 2.229,0.516 2.256,0.524 2.277,0.533 2.47,0.636 2.638,0.751 2.782,0.874 2.824,0.909 2.857,0.946 2.895,0.981 2.992,1.077 3.074,1.179 3.139,1.285 3.164,1.326 3.193,1.366 3.213,1.41 3.282,1.555 3.329,1.705 3.329,1.861 v -25.629 c 0,-0.156 -0.048,-0.305 -0.117,-0.45 -0.019,-0.043 -0.045,-0.084 -0.073,-0.125 -0.065,-0.107 -0.147,-0.208 -0.247,-0.306 -0.035,-0.036 -0.068,-0.07 -0.107,-0.105 -0.147,-0.124 -0.315,-0.239 -0.508,-0.341 -0.021,-0.008 -0.044,-0.016 -0.066,-0.027 -0.179,-0.089 -0.38,-0.166 -0.592,-0.235 -0.123,-0.041 -0.248,-0.079 -0.382,-0.109 -0.028,-0.007 -0.059,-0.017 -0.09,-0.024 -0.195,-0.042 -0.397,-0.076 -0.608,-0.099 -0.022,-0.004 -0.043,-0.005 -0.067,-0.008 -0.219,-0.022 -0.445,-0.036 -0.678,-0.036 v 25.628 c 0.07,0 0.139,0.002 0.206,0.005"
             style="fill:#e0dfde;fill-opacity:1;fill-rule:nonzero;stroke:none"
             id="path543" /></g><g
           id="g545"
           transform="translate(374.8481,159.5869)"><path
             d="M 0,0 C 0.079,0.053 0.154,0.111 0.224,0.168 0.266,0.203 0.299,0.239 0.336,0.275 0.434,0.371 0.516,0.472 0.581,0.579 0.607,0.619 0.635,0.66 0.654,0.703 0.723,0.849 0.771,1 0.771,1.156 v -25.63 c 0,-0.157 -0.049,-0.305 -0.118,-0.451 -0.018,-0.042 -0.044,-0.083 -0.072,-0.124 -0.065,-0.107 -0.147,-0.208 -0.248,-0.306 -0.034,-0.035 -0.067,-0.07 -0.106,-0.105 -0.073,-0.059 -0.148,-0.116 -0.229,-0.172 z"
             style="fill:#adacab;fill-opacity:1;fill-rule:nonzero;stroke:none"
             id="path547" /></g><g
           id="g549"
           transform="translate(340.1486,158.8806)"><path
             d="m 0,0 c -0.117,0.002 -0.234,0.01 -0.347,0.018 -0.034,0.003 -0.067,0.007 -0.1,0.011 -0.04,0.005 -0.08,0.009 -0.119,0.015 -0.046,0.004 -0.094,0.008 -0.14,0.013 -0.128,0.021 -0.257,0.041 -0.381,0.069 -0.009,0.001 -0.021,0.006 -0.029,0.008 -0.057,0.011 -0.112,0.027 -0.168,0.04 -0.084,0.02 -0.168,0.039 -0.251,0.062 -0.031,0.01 -0.054,0.024 -0.087,0.035 -0.208,0.068 -0.407,0.144 -0.585,0.234 -0.023,0.011 -0.048,0.019 -0.071,0.028 -0.193,0.103 -0.358,0.218 -0.503,0.341 -0.042,0.035 -0.075,0.072 -0.111,0.107 -0.099,0.096 -0.179,0.198 -0.246,0.304 -0.028,0.041 -0.054,0.081 -0.075,0.125 -0.07,0.145 -0.115,0.295 -0.115,0.451 v -25.629 c 0,-0.156 0.046,-0.305 0.117,-0.45 0.019,-0.043 0.045,-0.084 0.071,-0.125 0.066,-0.107 0.149,-0.208 0.248,-0.306 0.036,-0.036 0.069,-0.07 0.109,-0.105 0.147,-0.124 0.312,-0.239 0.505,-0.341 0.023,-0.008 0.046,-0.016 0.069,-0.027 0.18,-0.089 0.379,-0.166 0.591,-0.235 0.123,-0.041 0.249,-0.079 0.381,-0.109 0.031,-0.007 0.061,-0.017 0.089,-0.024 0.197,-0.042 0.399,-0.076 0.607,-0.099 0.023,-0.004 0.046,-0.005 0.069,-0.008 0.221,-0.022 0.445,-0.036 0.678,-0.036 V -0.005 C 0.136,-0.005 0.067,-0.003 0,0"
             style="fill:#e0dfde;fill-opacity:1;fill-rule:nonzero;stroke:none"
             id="path551" /></g><g
           id="g553"
           transform="translate(372.0926,187.9248)"><path
             d="m 0,0 c 1.957,0 3.544,-0.837 3.544,-1.867 v -25.316 c 0,-1.03 -1.587,-1.866 -3.544,-1.866 h -31.737 c -1.951,0 -3.535,0.836 -3.535,1.866 v 25.316 c 0,1.03 1.584,1.867 3.535,1.867 z"
             style="fill:#4f4c4d;fill-opacity:1;fill-rule:nonzero;stroke:none"
             id="path555" /></g><path
           d="m 372.092,133.248 h -31.737 v 25.628 h 31.737 z"
           style="fill:#eae9e9;fill-opacity:1;fill-rule:nonzero;stroke:none"
           id="path557" /><g
           id="g559"
           transform="translate(375.6368,161.1272)"><path
             d="m 0,0 v -4.304 c 0,-1.031 -1.586,-1.868 -3.544,-1.868 h -31.737 c -1.951,0 -3.535,0.837 -3.535,1.868 v 4.349 z"
             style="fill:#444141;fill-opacity:1;fill-rule:nonzero;stroke:none"
             id="path561" /></g><g
           id="g563"
           transform="translate(372.0495,161.1323)"><path
             d="M 0,0 3.587,-0.005 V -4.31 c 0,-1.03 -1.586,-1.867 -3.544,-1.867 z"
             style="fill:#403c3d;fill-opacity:1;fill-rule:nonzero;stroke:none"
             id="path565" /></g><g
           id="g567"
           transform="translate(372.0926,187.9248)"><path
             d="m 0,0 c 1.957,0 3.544,-0.837 3.544,-1.867 v -25.316 c 0,-1.03 -1.587,-1.866 -3.544,-1.866 z"
             style="fill:#484546;fill-opacity:1;fill-rule:nonzero;stroke:none"
             id="path569" /></g><g
           id="g571"
           transform="translate(340.3555,187.9248)"><path
             d="m 0,0 c -1.958,0 -3.543,-0.837 -3.543,-1.867 v -25.316 c 0,-1.03 1.585,-1.866 3.543,-1.866 z"
             style="fill:#484546;fill-opacity:1;fill-rule:nonzero;stroke:none"
             id="path573" /></g><g
           id="g575"
           transform="translate(372.0495,161.1323)"><path
             d="M 0,0 3.587,-0.005 V -4.31 c 0,-1.03 -1.586,-1.867 -3.544,-1.867 z"
             style="fill:#403c3d;fill-opacity:1;fill-rule:nonzero;stroke:none"
             id="path577" /></g><g
           id="g579"
           transform="translate(374.9336,187.1751)"><path
             d="m 0,0 c 0.442,-0.355 0.703,-0.798 0.703,-1.276 v -28.905 c 0,-0.492 -0.279,-0.951 -0.749,-1.31 z"
             style="fill:#393536;fill-opacity:1;fill-rule:nonzero;stroke:none"
             id="path581" /></g><g
           id="g583"
           transform="translate(340.3778,161.1323)"><path
             d="M 0,0 -3.587,-0.005 V -4.31 c 0,-1.03 1.584,-1.867 3.542,-1.867 z"
             style="fill:#403c3d;fill-opacity:1;fill-rule:nonzero;stroke:none"
             id="path585" /></g><g
           id="g587"
           transform="translate(372.2891,186.7231)"><path
             d="m 0,0 c 0.117,0.003 0.233,0.011 0.347,0.02 0.032,0.003 0.065,0.007 0.099,0.01 0.04,0.004 0.081,0.009 0.12,0.014 0.045,0.004 0.092,0.009 0.137,0.015 0.131,0.019 0.259,0.041 0.382,0.067 0.011,0.002 0.021,0.007 0.031,0.008 0.056,0.012 0.11,0.027 0.166,0.04 0.084,0.021 0.17,0.039 0.252,0.064 0.031,0.009 0.055,0.024 0.086,0.034 0.21,0.067 0.41,0.145 0.587,0.235 0.021,0.01 0.048,0.017 0.067,0.028 0.196,0.102 0.362,0.218 0.507,0.34 0.041,0.036 0.074,0.072 0.111,0.107 0.098,0.097 0.179,0.197 0.244,0.304 0.028,0.041 0.055,0.08 0.076,0.124 0.07,0.146 0.116,0.296 0.116,0.452 v -25.628 c 0,-0.157 -0.048,-0.307 -0.117,-0.452 -0.02,-0.042 -0.047,-0.083 -0.073,-0.123 -0.066,-0.108 -0.148,-0.21 -0.246,-0.307 -0.037,-0.034 -0.07,-0.07 -0.109,-0.106 -0.147,-0.122 -0.313,-0.239 -0.509,-0.338 -0.019,-0.011 -0.044,-0.019 -0.065,-0.029 -0.179,-0.09 -0.379,-0.167 -0.592,-0.236 -0.123,-0.039 -0.249,-0.078 -0.382,-0.109 -0.028,-0.007 -0.059,-0.016 -0.091,-0.023 -0.194,-0.042 -0.395,-0.076 -0.606,-0.099 -0.022,-0.003 -0.045,-0.005 -0.066,-0.008 -0.221,-0.022 -0.448,-0.037 -0.68,-0.037 v 25.628 c 0.072,0 0.139,0.002 0.208,0.005"
             style="fill:#e0dfde;fill-opacity:1;fill-rule:nonzero;stroke:none"
             id="path589" /></g><g
           id="g591"
           transform="translate(374.8459,187.4292)"><path
             d="M 0,0 C 0.08,0.054 0.152,0.111 0.225,0.168 0.265,0.204 0.299,0.241 0.335,0.276 0.433,0.373 0.515,0.473 0.58,0.58 0.608,0.62 0.635,0.661 0.655,0.704 0.725,0.85 0.772,1 0.772,1.157 v -25.629 c 0,-0.156 -0.05,-0.307 -0.118,-0.453 -0.019,-0.042 -0.046,-0.082 -0.073,-0.122 -0.065,-0.108 -0.148,-0.209 -0.246,-0.307 -0.036,-0.034 -0.07,-0.071 -0.109,-0.106 -0.074,-0.059 -0.147,-0.117 -0.229,-0.171 z"
             style="fill:#adacab;fill-opacity:1;fill-rule:nonzero;stroke:none"
             id="path593" /></g><g
           id="g595"
           transform="translate(340.1464,186.7231)"><path
             d="m 0,0 c -0.117,0.003 -0.235,0.011 -0.348,0.02 -0.033,0.003 -0.066,0.007 -0.099,0.01 -0.039,0.004 -0.08,0.009 -0.12,0.014 -0.046,0.004 -0.094,0.009 -0.138,0.015 -0.131,0.019 -0.257,0.041 -0.382,0.067 -0.009,0.002 -0.02,0.007 -0.03,0.008 -0.057,0.012 -0.112,0.027 -0.165,0.04 -0.085,0.021 -0.171,0.039 -0.253,0.064 -0.031,0.009 -0.054,0.024 -0.088,0.034 -0.209,0.067 -0.406,0.145 -0.584,0.235 -0.023,0.01 -0.048,0.017 -0.071,0.028 -0.192,0.102 -0.359,0.218 -0.503,0.34 -0.043,0.036 -0.076,0.072 -0.111,0.107 -0.1,0.097 -0.18,0.197 -0.247,0.304 -0.025,0.041 -0.054,0.08 -0.073,0.124 -0.071,0.146 -0.117,0.296 -0.117,0.452 v -25.628 c 0,-0.157 0.049,-0.307 0.118,-0.452 0.018,-0.042 0.045,-0.083 0.072,-0.123 0.067,-0.108 0.147,-0.21 0.248,-0.307 0.034,-0.034 0.067,-0.07 0.107,-0.106 0.147,-0.122 0.314,-0.239 0.506,-0.338 0.023,-0.011 0.045,-0.019 0.068,-0.029 0.179,-0.09 0.379,-0.167 0.59,-0.236 0.124,-0.039 0.25,-0.078 0.382,-0.109 0.031,-0.007 0.062,-0.016 0.092,-0.023 0.194,-0.042 0.396,-0.076 0.605,-0.099 0.024,-0.003 0.045,-0.005 0.071,-0.008 0.218,-0.022 0.443,-0.037 0.676,-0.037 V -0.005 C 0.136,-0.005 0.067,-0.003 0,0"
             style="fill:#e0dfde;fill-opacity:1;fill-rule:nonzero;stroke:none"
             id="path597" /></g><g
           id="g599"
           transform="translate(372.0911,215.7683)"><path
             d="m 0,0 c 1.957,0 3.542,-0.837 3.542,-1.868 v -25.315 c 0,-1.03 -1.585,-1.867 -3.542,-1.867 h -31.738 c -1.953,0 -3.536,0.837 -3.536,1.867 v 25.315 c 0,1.031 1.583,1.868 3.536,1.868 z"
             style="fill:#4f4c4d;fill-opacity:1;fill-rule:nonzero;stroke:none"
             id="path601" /></g><path
           d="m 372.091,161.091 h -31.738 v 25.628 h 31.738 z"
           style="fill:#eae9e9;fill-opacity:1;fill-rule:nonzero;stroke:none"
           id="path603" /><g
           id="g605"
           transform="translate(375.6339,188.9703)"><path
             d="m 0,0 v -4.305 c 0,-1.03 -1.585,-1.867 -3.542,-1.867 h -31.739 c -1.952,0 -3.535,0.837 -3.535,1.867 v 4.35 z"
             style="fill:#444141;fill-opacity:1;fill-rule:nonzero;stroke:none"
             id="path607" /></g><g
           id="g609"
           transform="translate(372.0472,188.9747)"><path
             d="M 0,0 3.587,-0.005 V -4.31 c 0,-1.03 -1.585,-1.867 -3.543,-1.867 z"
             style="fill:#403c3d;fill-opacity:1;fill-rule:nonzero;stroke:none"
             id="path611" /></g><g
           id="g613"
           transform="translate(372.0911,215.7683)"><path
             d="M 0,0 C 1.957,0 3.542,-0.837 3.542,-1.868 V -27.183 C 3.542,-28.213 1.957,-29.05 0,-29.05 Z"
             style="fill:#484546;fill-opacity:1;fill-rule:nonzero;stroke:none"
             id="path615" /></g><g
           id="g617"
           transform="translate(340.3533,215.7683)"><path
             d="m 0,0 c -1.958,0 -3.543,-0.837 -3.543,-1.868 v -25.315 c 0,-1.03 1.585,-1.867 3.543,-1.867 z"
             style="fill:#484546;fill-opacity:1;fill-rule:nonzero;stroke:none"
             id="path619" /></g><g
           id="g621"
           transform="translate(372.0472,188.9747)"><path
             d="M 0,0 3.587,-0.005 V -4.31 c 0,-1.03 -1.585,-1.867 -3.543,-1.867 z"
             style="fill:#403c3d;fill-opacity:1;fill-rule:nonzero;stroke:none"
             id="path623" /></g><g
           id="g625"
           transform="translate(374.9307,215.0182)"><path
             d="M 0,0 C 0.441,-0.355 0.703,-0.797 0.703,-1.276 V -30.18 c 0,-0.495 -0.279,-0.95 -0.749,-1.311 z"
             style="fill:#393536;fill-opacity:1;fill-rule:nonzero;stroke:none"
             id="path627" /></g><g
           id="g629"
           transform="translate(340.3749,188.9747)"><path
             d="M 0,0 -3.588,-0.005 V -4.31 c 0,-1.03 1.586,-1.867 3.543,-1.867 z"
             style="fill:#403c3d;fill-opacity:1;fill-rule:nonzero;stroke:none"
             id="path631" /></g><g
           id="g633"
           transform="translate(411.0908,158.8806)"><path
             d="m 0,0 c 0.117,0.002 0.234,0.01 0.347,0.018 0.035,0.003 0.065,0.007 0.1,0.011 0.04,0.005 0.079,0.009 0.121,0.015 0.045,0.004 0.092,0.008 0.138,0.013 0.128,0.021 0.257,0.041 0.382,0.069 0.008,0.001 0.019,0.006 0.031,0.008 0.056,0.011 0.109,0.027 0.164,0.04 0.083,0.02 0.171,0.039 0.252,0.062 0.031,0.01 0.054,0.024 0.087,0.035 0.211,0.068 0.407,0.144 0.585,0.234 0.022,0.011 0.049,0.019 0.07,0.028 0.194,0.103 0.361,0.218 0.504,0.341 0.043,0.035 0.076,0.072 0.111,0.107 0.1,0.096 0.182,0.198 0.247,0.304 0.025,0.041 0.055,0.081 0.075,0.125 0.069,0.145 0.114,0.295 0.114,0.451 v -25.629 c 0,-0.156 -0.048,-0.305 -0.116,-0.45 -0.018,-0.043 -0.046,-0.084 -0.073,-0.125 -0.065,-0.107 -0.147,-0.208 -0.247,-0.306 -0.035,-0.036 -0.068,-0.07 -0.107,-0.105 -0.147,-0.124 -0.314,-0.239 -0.508,-0.341 -0.021,-0.008 -0.045,-0.016 -0.066,-0.027 -0.181,-0.089 -0.381,-0.166 -0.592,-0.235 -0.122,-0.041 -0.25,-0.079 -0.382,-0.109 -0.03,-0.007 -0.059,-0.017 -0.091,-0.024 -0.194,-0.042 -0.398,-0.076 -0.605,-0.099 -0.023,-0.004 -0.046,-0.005 -0.069,-0.008 -0.219,-0.022 -0.445,-0.036 -0.678,-0.036 v 25.628 c 0.069,0 0.138,0.002 0.206,0.005"
             style="fill:#e0dfde;fill-opacity:1;fill-rule:nonzero;stroke:none"
             id="path635" /></g><g
           id="g637"
           transform="translate(413.6498,159.5869)"><path
             d="M 0,0 C 0.079,0.053 0.153,0.111 0.222,0.168 0.265,0.203 0.298,0.239 0.333,0.275 0.433,0.371 0.515,0.472 0.581,0.579 0.606,0.619 0.635,0.66 0.654,0.703 0.723,0.849 0.77,1 0.77,1.156 v -25.63 c 0,-0.157 -0.049,-0.305 -0.118,-0.451 -0.017,-0.042 -0.045,-0.083 -0.071,-0.124 -0.066,-0.107 -0.148,-0.208 -0.248,-0.306 -0.035,-0.035 -0.068,-0.07 -0.107,-0.105 -0.073,-0.059 -0.147,-0.116 -0.228,-0.172 z"
             style="fill:#adacab;fill-opacity:1;fill-rule:nonzero;stroke:none"
             id="path639" /></g><g
           id="g641"
           transform="translate(378.9496,158.8806)"><path
             d="m 0,0 c -0.117,0.002 -0.234,0.01 -0.347,0.018 -0.035,0.003 -0.068,0.007 -0.101,0.011 -0.04,0.005 -0.08,0.009 -0.118,0.015 -0.047,0.004 -0.094,0.008 -0.14,0.013 -0.128,0.021 -0.259,0.041 -0.381,0.069 -0.011,0.001 -0.021,0.006 -0.03,0.008 -0.056,0.011 -0.111,0.027 -0.167,0.04 -0.085,0.02 -0.17,0.039 -0.251,0.062 -0.03,0.01 -0.056,0.024 -0.087,0.035 -0.211,0.068 -0.407,0.144 -0.585,0.234 -0.024,0.011 -0.048,0.019 -0.07,0.028 -0.193,0.103 -0.361,0.218 -0.506,0.341 -0.041,0.035 -0.073,0.072 -0.109,0.107 -0.1,0.096 -0.181,0.198 -0.247,0.304 C -3.164,1.326 -3.192,1.366 -3.215,1.41 -3.283,1.555 -3.33,1.705 -3.33,1.861 v -25.629 c 0,-0.156 0.048,-0.305 0.117,-0.45 0.021,-0.043 0.049,-0.084 0.073,-0.125 0.066,-0.107 0.148,-0.208 0.248,-0.306 0.036,-0.036 0.068,-0.07 0.108,-0.105 0.146,-0.124 0.314,-0.239 0.507,-0.341 0.022,-0.008 0.045,-0.016 0.067,-0.027 0.181,-0.089 0.377,-0.166 0.591,-0.235 0.124,-0.041 0.25,-0.079 0.382,-0.109 0.03,-0.007 0.058,-0.017 0.09,-0.024 0.195,-0.042 0.396,-0.076 0.607,-0.099 0.023,-0.004 0.045,-0.005 0.068,-0.008 0.22,-0.022 0.446,-0.036 0.678,-0.036 V -0.005 C 0.137,-0.005 0.066,-0.003 0,0"
             style="fill:#e0dfde;fill-opacity:1;fill-rule:nonzero;stroke:none"
             id="path643" /></g><g
           id="g645"
           transform="translate(410.8943,187.9248)"><path
             d="m 0,0 c 1.956,0 3.543,-0.837 3.543,-1.867 v -25.316 c 0,-1.03 -1.587,-1.866 -3.543,-1.866 h -31.738 c -1.952,0 -3.537,0.836 -3.537,1.866 v 25.316 c 0,1.03 1.585,1.867 3.537,1.867 z"
             style="fill:#4f4c4d;fill-opacity:1;fill-rule:nonzero;stroke:none"
             id="path647" /></g><path
           d="m 410.894,133.248 h -31.738 v 25.628 h 31.738 z"
           style="fill:#eae9e9;fill-opacity:1;fill-rule:nonzero;stroke:none"
           id="path649" /><g
           id="g651"
           transform="translate(414.4377,161.1272)"><path
             d="m 0,0 v -4.304 c 0,-1.031 -1.587,-1.868 -3.543,-1.868 h -31.739 c -1.951,0 -3.536,0.837 -3.536,1.868 v 4.349 z"
             style="fill:#444141;fill-opacity:1;fill-rule:nonzero;stroke:none"
             id="path653" /></g><g
           id="g655"
           transform="translate(410.8504,161.1323)"><path
             d="M 0,0 3.587,-0.005 V -4.31 C 3.587,-5.34 2,-6.177 0.044,-6.177 Z"
             style="fill:#403c3d;fill-opacity:1;fill-rule:nonzero;stroke:none"
             id="path657" /></g><g
           id="g659"
           transform="translate(410.8943,187.9248)"><path
             d="m 0,0 c 1.956,0 3.543,-0.837 3.543,-1.867 v -25.316 c 0,-1.03 -1.587,-1.866 -3.543,-1.866 z"
             style="fill:#484546;fill-opacity:1;fill-rule:nonzero;stroke:none"
             id="path661" /></g><g
           id="g663"
           transform="translate(379.1557,187.9248)"><path
             d="m 0,0 c -1.957,0 -3.542,-0.837 -3.542,-1.867 v -25.316 c 0,-1.03 1.585,-1.866 3.542,-1.866 z"
             style="fill:#484546;fill-opacity:1;fill-rule:nonzero;stroke:none"
             id="path665" /></g><g
           id="g667"
           transform="translate(410.8504,161.1323)"><path
             d="M 0,0 3.587,-0.005 V -4.31 C 3.587,-5.34 2,-6.177 0.044,-6.177 Z"
             style="fill:#403c3d;fill-opacity:1;fill-rule:nonzero;stroke:none"
             id="path669" /></g><g
           id="g671"
           transform="translate(413.7354,187.1751)"><path
             d="m 0,0 c 0.44,-0.355 0.703,-0.798 0.703,-1.276 v -28.905 c 0,-0.492 -0.28,-0.951 -0.75,-1.31 z"
             style="fill:#393536;fill-opacity:1;fill-rule:nonzero;stroke:none"
             id="path673" /></g><g
           id="g675"
           transform="translate(379.1788,161.1323)"><path
             d="M 0,0 -3.587,-0.005 V -4.31 c 0,-1.03 1.583,-1.867 3.541,-1.867 z"
             style="fill:#403c3d;fill-opacity:1;fill-rule:nonzero;stroke:none"
             id="path677" /></g><g
           id="g679"
           transform="translate(411.09,186.7231)"><path
             d="m 0,0 c 0.117,0.003 0.232,0.011 0.345,0.02 0.034,0.003 0.067,0.007 0.101,0.01 0.04,0.004 0.08,0.009 0.119,0.014 0.045,0.004 0.093,0.009 0.139,0.015 0.128,0.019 0.258,0.041 0.382,0.067 0.01,0.002 0.02,0.007 0.03,0.008 0.057,0.012 0.11,0.027 0.166,0.04 0.084,0.021 0.17,0.039 0.251,0.064 0.032,0.009 0.056,0.024 0.087,0.034 0.21,0.067 0.408,0.145 0.586,0.235 0.023,0.01 0.049,0.017 0.068,0.028 0.197,0.102 0.362,0.218 0.507,0.34 0.041,0.036 0.074,0.072 0.109,0.107 0.1,0.097 0.181,0.197 0.247,0.304 0.027,0.041 0.054,0.08 0.075,0.124 0.069,0.146 0.116,0.296 0.116,0.452 v -25.628 c 0,-0.157 -0.049,-0.307 -0.117,-0.452 -0.02,-0.042 -0.047,-0.083 -0.073,-0.123 -0.066,-0.108 -0.148,-0.21 -0.248,-0.307 -0.035,-0.034 -0.068,-0.07 -0.108,-0.106 -0.146,-0.122 -0.311,-0.239 -0.508,-0.338 -0.019,-0.011 -0.045,-0.019 -0.066,-0.029 -0.18,-0.09 -0.378,-0.167 -0.591,-0.236 -0.123,-0.039 -0.25,-0.078 -0.382,-0.109 -0.03,-0.007 -0.059,-0.016 -0.091,-0.023 -0.194,-0.042 -0.396,-0.076 -0.605,-0.099 -0.022,-0.003 -0.047,-0.005 -0.069,-0.008 -0.219,-0.022 -0.446,-0.037 -0.677,-0.037 v 25.628 c 0.07,0 0.138,0.002 0.207,0.005"
             style="fill:#e0dfde;fill-opacity:1;fill-rule:nonzero;stroke:none"
             id="path681" /></g><g
           id="g683"
           transform="translate(413.6475,187.4292)"><path
             d="M 0,0 C 0.079,0.054 0.153,0.111 0.224,0.168 0.264,0.204 0.298,0.241 0.333,0.276 0.432,0.373 0.514,0.473 0.58,0.58 0.607,0.62 0.634,0.661 0.655,0.704 0.723,0.85 0.771,1 0.771,1.157 v -25.629 c 0,-0.156 -0.049,-0.307 -0.118,-0.453 -0.019,-0.042 -0.046,-0.082 -0.072,-0.122 -0.066,-0.108 -0.149,-0.209 -0.248,-0.307 -0.035,-0.034 -0.069,-0.071 -0.108,-0.106 -0.072,-0.059 -0.147,-0.117 -0.229,-0.171 z"
             style="fill:#adacab;fill-opacity:1;fill-rule:nonzero;stroke:none"
             id="path685" /></g><g
           id="g687"
           transform="translate(378.9474,186.7231)"><path
             d="m 0,0 c -0.117,0.003 -0.235,0.011 -0.348,0.02 -0.034,0.003 -0.065,0.007 -0.099,0.01 -0.04,0.004 -0.081,0.009 -0.12,0.014 -0.047,0.004 -0.094,0.009 -0.138,0.015 -0.131,0.019 -0.258,0.041 -0.382,0.067 -0.01,0.002 -0.02,0.007 -0.031,0.008 -0.059,0.012 -0.111,0.027 -0.165,0.04 -0.084,0.021 -0.171,0.039 -0.252,0.064 -0.031,0.009 -0.055,0.024 -0.087,0.034 -0.211,0.067 -0.407,0.145 -0.586,0.235 -0.022,0.01 -0.048,0.017 -0.069,0.028 -0.194,0.102 -0.362,0.218 -0.505,0.34 -0.042,0.036 -0.075,0.072 -0.111,0.107 -0.099,0.097 -0.18,0.197 -0.246,0.304 -0.025,0.041 -0.054,0.08 -0.075,0.124 -0.069,0.146 -0.114,0.296 -0.114,0.452 v -25.628 c 0,-0.157 0.048,-0.307 0.116,-0.452 0.019,-0.042 0.047,-0.083 0.073,-0.123 0.066,-0.108 0.147,-0.21 0.247,-0.307 0.035,-0.034 0.068,-0.07 0.108,-0.106 0.145,-0.122 0.313,-0.239 0.507,-0.338 0.021,-0.011 0.044,-0.019 0.067,-0.029 0.18,-0.09 0.379,-0.167 0.59,-0.236 0.123,-0.039 0.25,-0.078 0.382,-0.109 0.03,-0.007 0.058,-0.016 0.092,-0.023 0.193,-0.042 0.396,-0.076 0.605,-0.099 0.024,-0.003 0.045,-0.005 0.069,-0.008 0.22,-0.022 0.445,-0.037 0.679,-0.037 V -0.005 C 0.136,-0.005 0.068,-0.003 0,0"
             style="fill:#e0dfde;fill-opacity:1;fill-rule:nonzero;stroke:none"
             id="path689" /></g><g
           id="g691"
           transform="translate(410.892,215.7683)"><path
             d="m 0,0 c 1.958,0 3.542,-0.837 3.542,-1.868 v -25.315 c 0,-1.03 -1.584,-1.867 -3.542,-1.867 h -31.737 c -1.953,0 -3.536,0.837 -3.536,1.867 v 25.315 c 0,1.031 1.583,1.868 3.536,1.868 z"
             style="fill:#4f4c4d;fill-opacity:1;fill-rule:nonzero;stroke:none"
             id="path693" /></g><path
           d="m 410.892,161.091 h -31.737 v 25.628 h 31.737 z"
           style="fill:#eae9e9;fill-opacity:1;fill-rule:nonzero;stroke:none"
           id="path695" /><g
           id="g697"
           transform="translate(414.4341,188.9703)"><path
             d="m 0,0 v -4.305 c 0,-1.03 -1.584,-1.867 -3.542,-1.867 h -31.737 c -1.953,0 -3.536,0.837 -3.536,1.867 v 4.35 z"
             style="fill:#444141;fill-opacity:1;fill-rule:nonzero;stroke:none"
             id="path699" /></g><g
           id="g701"
           transform="translate(410.8474,188.9747)"><path
             d="M 0,0 3.587,-0.005 V -4.31 c 0,-1.03 -1.585,-1.867 -3.542,-1.867 z"
             style="fill:#403c3d;fill-opacity:1;fill-rule:nonzero;stroke:none"
             id="path703" /></g><g
           id="g705"
           transform="translate(410.892,215.7683)"><path
             d="M 0,0 C 1.958,0 3.542,-0.837 3.542,-1.868 V -27.183 C 3.542,-28.213 1.958,-29.05 0,-29.05 Z"
             style="fill:#484546;fill-opacity:1;fill-rule:nonzero;stroke:none"
             id="path707" /></g><g
           id="g709"
           transform="translate(379.155,215.7683)"><path
             d="m 0,0 c -1.959,0 -3.543,-0.837 -3.543,-1.868 v -25.315 c 0,-1.03 1.584,-1.867 3.543,-1.867 z"
             style="fill:#484546;fill-opacity:1;fill-rule:nonzero;stroke:none"
             id="path711" /></g><g
           id="g713"
           transform="translate(410.8474,188.9747)"><path
             d="M 0,0 3.587,-0.005 V -4.31 c 0,-1.03 -1.585,-1.867 -3.542,-1.867 z"
             style="fill:#403c3d;fill-opacity:1;fill-rule:nonzero;stroke:none"
             id="path715" /></g><g
           id="g717"
           transform="translate(413.7324,215.0182)"><path
             d="M 0,0 C 0.44,-0.355 0.702,-0.797 0.702,-1.276 V -30.18 c 0,-0.495 -0.28,-0.95 -0.749,-1.311 z"
             style="fill:#393536;fill-opacity:1;fill-rule:nonzero;stroke:none"
             id="path719" /></g><g
           id="g721"
           transform="translate(379.1758,188.9747)"><path
             d="M 0,0 -3.588,-0.005 V -4.31 c 0,-1.03 1.586,-1.867 3.541,-1.867 z"
             style="fill:#403c3d;fill-opacity:1;fill-rule:nonzero;stroke:none"
             id="path723" /></g><g
           id="g725"
           transform="translate(449.8984,158.8806)"><path
             d="m 0,0 c 0.116,0.002 0.232,0.01 0.347,0.018 0.033,0.003 0.064,0.007 0.098,0.011 0.041,0.005 0.081,0.009 0.122,0.015 0.045,0.004 0.092,0.008 0.136,0.013 0.131,0.021 0.259,0.041 0.382,0.069 0.01,0.001 0.021,0.006 0.031,0.008 0.058,0.011 0.11,0.027 0.167,0.04 0.083,0.02 0.17,0.039 0.251,0.062 C 1.565,0.246 1.587,0.26 1.62,0.271 1.831,0.339 2.029,0.415 2.207,0.505 2.228,0.516 2.254,0.524 2.274,0.533 2.47,0.636 2.635,0.751 2.78,0.874 2.823,0.909 2.855,0.946 2.892,0.981 2.99,1.077 3.071,1.179 3.138,1.285 3.164,1.326 3.19,1.366 3.212,1.41 3.282,1.555 3.327,1.705 3.327,1.861 v -25.629 c 0,-0.156 -0.048,-0.305 -0.117,-0.45 -0.02,-0.043 -0.046,-0.084 -0.072,-0.125 -0.067,-0.107 -0.148,-0.208 -0.247,-0.306 -0.036,-0.036 -0.068,-0.07 -0.109,-0.105 -0.146,-0.124 -0.312,-0.239 -0.508,-0.341 -0.019,-0.008 -0.045,-0.016 -0.064,-0.027 -0.18,-0.089 -0.381,-0.166 -0.594,-0.235 -0.123,-0.041 -0.247,-0.079 -0.379,-0.109 -0.031,-0.007 -0.06,-0.017 -0.093,-0.024 -0.193,-0.042 -0.396,-0.076 -0.606,-0.099 -0.022,-0.004 -0.043,-0.005 -0.067,-0.008 -0.219,-0.022 -0.447,-0.036 -0.68,-0.036 v 25.628 c 0.072,0 0.14,0.002 0.209,0.005"
             style="fill:#e0dfde;fill-opacity:1;fill-rule:nonzero;stroke:none"
             id="path727" /></g><g
           id="g729"
           transform="translate(452.4543,159.5869)"><path
             d="M 0,0 C 0.08,0.053 0.155,0.111 0.225,0.168 0.267,0.203 0.299,0.239 0.335,0.275 0.434,0.371 0.516,0.472 0.582,0.579 0.609,0.619 0.635,0.66 0.655,0.703 0.725,0.849 0.772,1 0.772,1.156 v -25.63 c 0,-0.157 -0.05,-0.305 -0.118,-0.451 -0.019,-0.042 -0.045,-0.083 -0.072,-0.124 -0.066,-0.107 -0.148,-0.208 -0.247,-0.306 -0.036,-0.035 -0.068,-0.07 -0.109,-0.105 -0.071,-0.059 -0.146,-0.116 -0.227,-0.172 z"
             style="fill:#adacab;fill-opacity:1;fill-rule:nonzero;stroke:none"
             id="path731" /></g><g
           id="g733"
           transform="translate(417.7484,158.8806)"><path
             d="m 0,0 c -0.116,0.002 -0.232,0.01 -0.347,0.018 -0.032,0.003 -0.065,0.007 -0.099,0.011 -0.041,0.005 -0.08,0.009 -0.12,0.015 -0.045,0.004 -0.092,0.008 -0.137,0.013 -0.131,0.021 -0.259,0.041 -0.382,0.069 -0.01,0.001 -0.021,0.006 -0.03,0.008 -0.058,0.011 -0.112,0.027 -0.167,0.04 -0.084,0.02 -0.17,0.039 -0.25,0.062 C -1.566,0.246 -1.588,0.26 -1.62,0.271 -1.83,0.339 -2.028,0.415 -2.206,0.505 -2.229,0.516 -2.254,0.524 -2.274,0.533 -2.47,0.636 -2.635,0.751 -2.78,0.874 -2.822,0.909 -2.854,0.946 -2.89,0.981 -2.989,1.077 -3.071,1.179 -3.137,1.285 -3.165,1.326 -3.19,1.366 -3.212,1.41 -3.282,1.555 -3.327,1.705 -3.327,1.861 v -25.629 c 0,-0.156 0.047,-0.305 0.117,-0.45 0.02,-0.043 0.045,-0.084 0.071,-0.125 0.067,-0.107 0.15,-0.208 0.249,-0.306 0.036,-0.036 0.068,-0.07 0.107,-0.105 0.148,-0.124 0.313,-0.239 0.509,-0.341 0.02,-0.008 0.044,-0.016 0.065,-0.027 0.181,-0.089 0.379,-0.166 0.592,-0.235 0.124,-0.041 0.249,-0.079 0.382,-0.109 0.031,-0.007 0.059,-0.017 0.09,-0.024 0.196,-0.042 0.397,-0.076 0.607,-0.099 0.022,-0.004 0.045,-0.005 0.069,-0.008 0.219,-0.022 0.444,-0.036 0.677,-0.036 V -0.005 C 0.138,-0.005 0.069,-0.003 0,0"
             style="fill:#e0dfde;fill-opacity:1;fill-rule:nonzero;stroke:none"
             id="path735" /></g><g
           id="g737"
           transform="translate(449.7004,187.9248)"><path
             d="m 0,0 c 1.956,0 3.542,-0.837 3.542,-1.867 v -25.316 c 0,-1.03 -1.586,-1.866 -3.542,-1.866 h -31.744 c -1.951,0 -3.535,0.836 -3.535,1.866 v 25.316 c 0,1.03 1.584,1.867 3.535,1.867 z"
             style="fill:#4f4c4d;fill-opacity:1;fill-rule:nonzero;stroke:none"
             id="path739" /></g><path
           d="m 449.7,133.248 h -31.744 v 25.628 H 449.7 Z"
           style="fill:#eae9e9;fill-opacity:1;fill-rule:nonzero;stroke:none"
           id="path741" /><g
           id="g743"
           transform="translate(453.2424,161.1272)"><path
             d="m 0,0 v -4.304 c 0,-1.031 -1.586,-1.868 -3.542,-1.868 h -31.744 c -1.951,0 -3.535,0.837 -3.535,1.868 v 4.349 z"
             style="fill:#444141;fill-opacity:1;fill-rule:nonzero;stroke:none"
             id="path745" /></g><g
           id="g747"
           transform="translate(449.6558,161.1323)"><path
             d="M 0,0 3.587,-0.005 V -4.31 c 0,-1.03 -1.586,-1.867 -3.542,-1.867 z"
             style="fill:#403c3d;fill-opacity:1;fill-rule:nonzero;stroke:none"
             id="path749" /></g><g
           id="g751"
           transform="translate(449.7004,187.9248)"><path
             d="m 0,0 c 1.956,0 3.542,-0.837 3.542,-1.867 v -25.316 c 0,-1.03 -1.586,-1.866 -3.542,-1.866 z"
             style="fill:#484546;fill-opacity:1;fill-rule:nonzero;stroke:none"
             id="path753" /></g><g
           id="g755"
           transform="translate(417.9567,187.9248)"><path
             d="m 0,0 c -1.958,0 -3.544,-0.837 -3.544,-1.867 v -25.316 c 0,-1.03 1.586,-1.866 3.544,-1.866 z"
             style="fill:#484546;fill-opacity:1;fill-rule:nonzero;stroke:none"
             id="path757" /></g><g
           id="g759"
           transform="translate(449.6558,161.1323)"><path
             d="M 0,0 3.587,-0.005 V -4.31 c 0,-1.03 -1.586,-1.867 -3.542,-1.867 z"
             style="fill:#403c3d;fill-opacity:1;fill-rule:nonzero;stroke:none"
             id="path761" /></g><g
           id="g763"
           transform="translate(452.5392,187.1751)"><path
             d="m 0,0 c 0.442,-0.355 0.703,-0.798 0.703,-1.276 v -28.905 c 0,-0.492 -0.279,-0.951 -0.748,-1.31 z"
             style="fill:#393536;fill-opacity:1;fill-rule:nonzero;stroke:none"
             id="path765" /></g><g
           id="g767"
           transform="translate(417.979,161.1323)"><path
             d="M 0,0 -3.587,-0.005 V -4.31 c 0,-1.03 1.584,-1.867 3.542,-1.867 z"
             style="fill:#403c3d;fill-opacity:1;fill-rule:nonzero;stroke:none"
             id="path769" /></g><g
           id="g771"
           transform="translate(449.8961,186.7231)"><path
             d="m 0,0 c 0.116,0.003 0.233,0.011 0.347,0.02 0.033,0.003 0.064,0.007 0.097,0.01 0.043,0.004 0.081,0.009 0.122,0.014 0.045,0.004 0.093,0.009 0.136,0.015 0.132,0.019 0.26,0.041 0.385,0.067 0.009,0.002 0.019,0.007 0.028,0.008 0.058,0.012 0.112,0.027 0.168,0.04 0.085,0.021 0.17,0.039 0.25,0.064 0.032,0.009 0.056,0.024 0.088,0.034 0.21,0.067 0.407,0.145 0.586,0.235 0.021,0.01 0.048,0.017 0.068,0.028 0.194,0.102 0.361,0.218 0.506,0.34 0.042,0.036 0.074,0.072 0.109,0.107 0.102,0.097 0.181,0.197 0.248,0.304 0.026,0.041 0.053,0.08 0.074,0.124 0.068,0.146 0.116,0.296 0.116,0.452 v -25.628 c 0,-0.157 -0.048,-0.307 -0.116,-0.452 -0.021,-0.042 -0.048,-0.083 -0.073,-0.123 -0.066,-0.108 -0.147,-0.21 -0.25,-0.307 -0.034,-0.034 -0.066,-0.07 -0.106,-0.106 -0.147,-0.122 -0.314,-0.239 -0.508,-0.338 -0.02,-0.011 -0.045,-0.019 -0.065,-0.029 -0.181,-0.09 -0.381,-0.167 -0.592,-0.236 -0.125,-0.039 -0.249,-0.078 -0.382,-0.109 -0.03,-0.007 -0.059,-0.016 -0.092,-0.023 -0.194,-0.042 -0.397,-0.076 -0.605,-0.099 -0.022,-0.003 -0.045,-0.005 -0.068,-0.008 -0.22,-0.022 -0.446,-0.037 -0.678,-0.037 V -0.005 C -0.138,-0.005 -0.07,-0.003 0,0"
             style="fill:#e0dfde;fill-opacity:1;fill-rule:nonzero;stroke:none"
             id="path773" /></g><g
           id="g775"
           transform="translate(452.4514,187.4292)"><path
             d="M 0,0 C 0.082,0.054 0.155,0.111 0.226,0.168 0.268,0.204 0.3,0.241 0.335,0.276 0.436,0.373 0.516,0.473 0.583,0.58 0.609,0.62 0.636,0.661 0.656,0.704 0.725,0.85 0.773,1 0.773,1.157 v -25.629 c 0,-0.156 -0.048,-0.307 -0.117,-0.453 -0.02,-0.042 -0.046,-0.082 -0.072,-0.122 -0.066,-0.108 -0.148,-0.209 -0.25,-0.307 C 0.3,-25.388 0.268,-25.425 0.228,-25.46 0.155,-25.519 0.08,-25.577 -0.001,-25.631 Z"
             style="fill:#adacab;fill-opacity:1;fill-rule:nonzero;stroke:none"
             id="path777" /></g><g
           id="g779"
           transform="translate(417.7468,186.7231)"><path
             d="M 0,0 C -0.115,0.003 -0.235,0.011 -0.348,0.02 -0.38,0.023 -0.411,0.027 -0.445,0.03 -0.486,0.034 -0.527,0.039 -0.568,0.044 -0.613,0.048 -0.66,0.053 -0.703,0.059 -0.835,0.078 -0.962,0.1 -1.087,0.126 c -0.008,0.002 -0.019,0.007 -0.029,0.008 -0.058,0.012 -0.112,0.027 -0.166,0.04 -0.084,0.021 -0.171,0.039 -0.253,0.064 -0.03,0.009 -0.053,0.024 -0.087,0.034 -0.209,0.067 -0.406,0.145 -0.585,0.235 -0.021,0.01 -0.048,0.017 -0.068,0.028 -0.195,0.102 -0.361,0.218 -0.506,0.34 -0.041,0.036 -0.076,0.072 -0.111,0.107 -0.1,0.097 -0.18,0.197 -0.246,0.304 -0.026,0.041 -0.054,0.08 -0.074,0.124 -0.069,0.146 -0.116,0.296 -0.116,0.452 v -25.628 c 0,-0.157 0.048,-0.307 0.118,-0.452 0.018,-0.042 0.044,-0.083 0.072,-0.123 0.066,-0.108 0.146,-0.21 0.248,-0.307 0.033,-0.034 0.068,-0.07 0.106,-0.106 0.148,-0.122 0.314,-0.239 0.509,-0.338 0.02,-0.011 0.044,-0.019 0.065,-0.029 0.18,-0.09 0.38,-0.167 0.592,-0.236 0.123,-0.039 0.248,-0.078 0.381,-0.109 0.031,-0.007 0.06,-0.016 0.092,-0.023 0.193,-0.042 0.396,-0.076 0.606,-0.099 0.023,-0.003 0.044,-0.005 0.07,-0.008 0.218,-0.022 0.442,-0.037 0.678,-0.037 V -0.005 C 0.139,-0.005 0.069,-0.003 0,0"
             style="fill:#e0dfde;fill-opacity:1;fill-rule:nonzero;stroke:none"
             id="path781" /></g><g
           id="g783"
           transform="translate(449.6975,215.7683)"><path
             d="m 0,0 c 1.957,0 3.542,-0.837 3.542,-1.868 v -25.315 c 0,-1.03 -1.585,-1.867 -3.542,-1.867 h -31.741 c -1.954,0 -3.537,0.837 -3.537,1.867 v 25.315 c 0,1.031 1.583,1.868 3.537,1.868 z"
             style="fill:#4f4c4d;fill-opacity:1;fill-rule:nonzero;stroke:none"
             id="path785" /></g><path
           d="m 449.697,161.091 h -31.741 v 25.628 h 31.741 z"
           style="fill:#eae9e9;fill-opacity:1;fill-rule:nonzero;stroke:none"
           id="path787" /><g
           id="g789"
           transform="translate(453.2402,188.9703)"><path
             d="m 0,0 v -4.305 c 0,-1.03 -1.585,-1.867 -3.542,-1.867 h -31.742 c -1.953,0 -3.537,0.837 -3.537,1.867 v 4.35 z"
             style="fill:#444141;fill-opacity:1;fill-rule:nonzero;stroke:none"
             id="path791" /></g><g
           id="g793"
           transform="translate(449.6536,188.9747)"><path
             d="M 0,0 3.587,-0.005 V -4.31 c 0,-1.03 -1.585,-1.867 -3.543,-1.867 z"
             style="fill:#403c3d;fill-opacity:1;fill-rule:nonzero;stroke:none"
             id="path795" /></g><g
           id="g797"
           transform="translate(449.6975,215.7683)"><path
             d="M 0,0 C 1.957,0 3.542,-0.837 3.542,-1.868 V -27.183 C 3.542,-28.213 1.957,-29.05 0,-29.05 Z"
             style="fill:#484546;fill-opacity:1;fill-rule:nonzero;stroke:none"
             id="path799" /></g><g
           id="g801"
           transform="translate(417.9559,215.7683)"><path
             d="m 0,0 c -1.96,0 -3.545,-0.837 -3.545,-1.868 v -25.315 c 0,-1.03 1.585,-1.867 3.545,-1.867 z"
             style="fill:#484546;fill-opacity:1;fill-rule:nonzero;stroke:none"
             id="path803" /></g><g
           id="g805"
           transform="translate(449.6536,188.9747)"><path
             d="M 0,0 3.587,-0.005 V -4.31 c 0,-1.03 -1.585,-1.867 -3.543,-1.867 z"
             style="fill:#403c3d;fill-opacity:1;fill-rule:nonzero;stroke:none"
             id="path807" /></g><g
           id="g809"
           transform="translate(452.537,215.0182)"><path
             d="M 0,0 C 0.443,-0.355 0.703,-0.797 0.703,-1.276 V -30.18 c 0,-0.495 -0.279,-0.95 -0.746,-1.311 z"
             style="fill:#393536;fill-opacity:1;fill-rule:nonzero;stroke:none"
             id="path811" /></g><g
           id="g813"
           transform="translate(417.976,188.9747)"><path
             d="M 0,0 -3.586,-0.005 V -4.31 c 0,-1.03 1.583,-1.867 3.541,-1.867 z"
             style="fill:#403c3d;fill-opacity:1;fill-rule:nonzero;stroke:none"
             id="path815" /></g></g></g></g></svg>
